<svg xmlns="http://www.w3.org/2000/svg" viewBox="0 0 48 42.51">
  <defs>
    <style>
      .a {
        fill: #fb3;
      }
    </style>
  </defs>
  <title>Asset 5</title>
  <g>
    <path class="a" d="M24,3a.5.5,0,0,1,.47.27L44.92,38.69a.55.55,0,0,1-.47.82H3.55a.55.55,0,0,1-.47-.82L23.53,3.27A.5.5,0,0,1,24,3m0-3a3.51,3.51,0,0,0-3.07,1.77L.48,37.19a3.55,3.55,0,0,0,3.07,5.32h40.9a3.55,3.55,0,0,0,3.07-5.32L27.07,1.77A3.51,3.51,0,0,0,24,0Z"/>
    <circle class="a" cx="24.12" cy="31.89" r="2.5"/>
    <rect class="a" x="22.12" y="14.07" width="4" height="12" rx="0.73"/>
  </g>
</svg>
