<svg xmlns="http://www.w3.org/2000/svg" viewBox="0 0 48 48">
  <defs>
    <style>
      .a {
        fill: #e22c2a;
      }

      .b {
        fill: #fff;
      }
    </style>
  </defs>
  <title>Asset 4</title>
  <g>
    <path class="a" d="M32.28,3a1,1,0,0,1,.71.29L44.71,15a1,1,0,0,1,.29.71V32.28a1,1,0,0,1-.29.71L33,44.71a1,1,0,0,1-.71.29H15.72a1,1,0,0,1-.71-.29L3.29,33A1,1,0,0,1,3,32.28V15.72A1,1,0,0,1,3.29,15L15,3.29A1,1,0,0,1,15.72,3H32.28m0-3H15.72a4,4,0,0,0-2.83,1.17L1.17,12.89A4,4,0,0,0,0,15.72V32.28a4,4,0,0,0,1.17,2.83L12.89,46.83A4,4,0,0,0,15.72,48H32.28a4,4,0,0,0,2.83-1.17L46.83,35.11A4,4,0,0,0,48,32.28V15.72a4,4,0,0,0-1.17-2.83L35.11,1.17A4,4,0,0,0,32.28,0Z"/>
    <g>
      <rect class="b" x="14.5" y="23" width="19" height="2" transform="translate(-9.94 24) rotate(-45)"/>
      <path class="a" d="M30,15.58a1,1,0,0,0-.71.29L15.87,29.3a1,1,0,0,0,0,1.42l1.41,1.41a1,1,0,0,0,1.42,0L32.13,18.7a1,1,0,0,0,0-1.42l-1.41-1.41a1,1,0,0,0-.71-.29Z"/>
    </g>
    <g>
      <rect class="b" x="23" y="14.5" width="2" height="19" transform="translate(-9.94 24) rotate(-45)"/>
      <path class="a" d="M18,15.58a1,1,0,0,0-.71.29l-1.41,1.41a1,1,0,0,0,0,1.42L29.3,32.13a1,1,0,0,0,1.42,0l1.41-1.41a1,1,0,0,0,0-1.42L18.7,15.87a1,1,0,0,0-.71-.29Z"/>
    </g>
  </g>
</svg>
