<svg xmlns="http://www.w3.org/2000/svg" width="479.47" height="89.95" viewBox="0 0 479.47 89.95"><title>rdti-logo</title><path d="M229.74,70.48h8.34a7.64,7.64,0,0,1,5.51,1.94,5.36,5.36,0,0,1,1.5,3.82v.06c0,3.21-2.22,5.1-5.27,5.65l6,7.93h-2.69l-5.62-7.54h-5.54v7.54h-2.19Zm8.14,9.89c2.91,0,5-1.49,5-4v0c0-2.39-1.83-3.83-5-3.83h-6v7.87Z" transform="translate(-3.44 -2.39)" fill="#fff"/><path d="M267.65,87.13a8.43,8.43,0,0,1-6.35,3c-3.49,0-6.1-2.19-6.1-5.44v0c0-2.58,1.72-4.44,4.69-5.6-1.33-1.55-1.94-2.74-1.94-4.27v0c0-2.55,2.05-4.6,5.12-4.6a4.49,4.49,0,0,1,4.71,4.38v0c0,2.47-1.74,4-4.57,5l4.44,4.52A25.07,25.07,0,0,0,270,79.82l1.8.83A26.9,26.9,0,0,1,269,85.53L272.36,89l-1.67,1.28Zm-1.33-1.35-5.19-5.35c-2.57.94-3.71,2.52-3.71,4.15v.06a3.74,3.74,0,0,0,4.05,3.66A6.64,6.64,0,0,0,266.32,85.78Zm-.59-11.09v0A2.64,2.64,0,0,0,263,72a2.78,2.78,0,0,0-2.94,2.8v0c0,1.14.47,2,1.94,3.58C264.46,77.55,265.73,76.36,265.73,74.69Z" transform="translate(-3.44 -2.39)" fill="#fff"/><path d="M282.92,70.48h6.73c6.1,0,10.31,4.19,10.31,9.64v.06c0,5.46-4.21,9.7-10.31,9.7h-6.73Zm2.19,2V87.86h4.54c4.9,0,8-3.33,8-7.63v0c0-4.3-3.14-7.68-8-7.68Z" transform="translate(-3.44 -2.39)" fill="#fff"/><path d="M316.64,72.5h-6.51v-2h15.24v2h-6.51V89.88h-2.22Z" transform="translate(-3.44 -2.39)" fill="#fff"/><path d="M327.34,85.72v0c0-3,2.49-4.63,6.12-4.63a15.27,15.27,0,0,1,4.41.61v-.5c0-2.58-1.58-3.91-4.27-3.91a10.11,10.11,0,0,0-4.35,1.05l-.64-1.74a11.83,11.83,0,0,1,5.21-1.19,6.25,6.25,0,0,1,4.63,1.58,5.64,5.64,0,0,1,1.47,4.18v8.76h-2.05V87.72a6.28,6.28,0,0,1-5.18,2.46C330,90.18,327.34,88.66,327.34,85.72Zm10.56-1.11V83.23a14.83,14.83,0,0,0-4.22-.61c-2.68,0-4.18,1.16-4.18,3v.06c0,1.8,1.66,2.85,3.6,2.85C335.73,88.49,337.9,86.88,337.9,84.61Z" transform="translate(-3.44 -2.39)" fill="#fff"/><path d="M349.34,81.15l4.27-5.6H356l-5.43,7,5.65,7.32h-2.46L349.31,84l-4.46,5.9h-2.38l5.6-7.29-5.38-7h2.44Z" transform="translate(-3.44 -2.39)" fill="#fff"/><path d="M367.16,70.48h2.19v19.4h-2.19Z" transform="translate(-3.44 -2.39)" fill="#fff"/><path d="M374,75.55h2.13v2.5a5.41,5.41,0,0,1,4.91-2.8c3.46,0,5.48,2.32,5.48,5.73v8.9h-2.13V81.51c0-2.66-1.44-4.32-4-4.32a4.22,4.22,0,0,0-4.3,4.49v8.2H374Z" transform="translate(-3.44 -2.39)" fill="#fff"/><path d="M389.47,82.78v0a7.46,7.46,0,0,1,13.08-4.93l-1.42,1.49a5.78,5.78,0,0,0-4.35-2.16,5.28,5.28,0,0,0-5.12,5.54v.06a5.35,5.35,0,0,0,5.26,5.57,6,6,0,0,0,4.38-2.13l1.36,1.27a7.41,7.41,0,0,1-13.19-4.66Z" transform="translate(-3.44 -2.39)" fill="#fff"/><path d="M404.6,82.76V82.7c0-4.13,2.91-7.45,6.87-7.45,4.24,0,6.68,3.38,6.68,7.56a5.08,5.08,0,0,1,0,.69H406.76a5,5,0,0,0,5,4.85,5.92,5.92,0,0,0,4.52-2l1.33,1.19a7.39,7.39,0,0,1-5.9,2.69A7.12,7.12,0,0,1,404.6,82.76ZM416,81.92c-.22-2.6-1.72-4.87-4.57-4.87-2.5,0-4.38,2.08-4.66,4.87Z" transform="translate(-3.44 -2.39)" fill="#fff"/><path d="M421.2,75.55h2.13v2.5a5.41,5.41,0,0,1,4.91-2.8c3.46,0,5.48,2.32,5.48,5.73v8.9h-2.13V81.51c0-2.66-1.44-4.32-4-4.32a4.22,4.22,0,0,0-4.3,4.49v8.2H421.2Z" transform="translate(-3.44 -2.39)" fill="#fff"/><path d="M438.32,86.08V77.44h-2V75.55h2V71.23h2.14v4.32H445v1.89h-4.54V85.8a2.12,2.12,0,0,0,2.41,2.39,4.5,4.5,0,0,0,2.08-.5v1.83a5.35,5.35,0,0,1-2.58.61C440.07,90.13,438.32,89,438.32,86.08Z" transform="translate(-3.44 -2.39)" fill="#fff"/><path d="M448.13,70.07h2.44v2.35h-2.44Zm.14,5.48h2.14V89.88h-2.14Z" transform="translate(-3.44 -2.39)" fill="#fff"/><path d="M453.26,75.55h2.36l4.82,11.89,4.85-11.89h2.3L461.35,90h-1.88Z" transform="translate(-3.44 -2.39)" fill="#fff"/><path d="M469.36,82.76V82.7c0-4.13,2.91-7.45,6.87-7.45,4.24,0,6.68,3.38,6.68,7.56a5.08,5.08,0,0,1,0,.69H471.52a5,5,0,0,0,5.05,4.85,5.91,5.91,0,0,0,4.51-2l1.33,1.19a7.38,7.38,0,0,1-5.9,2.69A7.12,7.12,0,0,1,469.36,82.76Zm11.39-.84c-.22-2.6-1.72-4.87-4.57-4.87-2.5,0-4.38,2.08-4.66,4.87Z" transform="translate(-3.44 -2.39)" fill="#fff"/><path d="M230.65,14.69h17.78c4.53,0,8.1,1.24,10.37,3.51a8.87,8.87,0,0,1,2.66,6.57v.12c0,4.75-2.72,7.3-5.67,8.83,4.65,1.59,7.87,4.24,7.87,9.63v.11c0,7.08-5.83,10.87-14.66,10.87H230.65ZM254.49,25.9c0-3.11-2.5-5-7-5h-10V31.4H247c4.48,0,7.48-1.76,7.48-5.38Zm-6,11.39h-11V48.16h11.56c4.75,0,7.63-1.87,7.63-5.44v-.11c0-3.34-2.65-5.32-8.15-5.32" transform="translate(-3.44 -2.39)" fill="#fff"/><path d="M268.7,43.46v-19h6.86v17c0,4.65,2.32,7.25,6.4,7.25s6.74-2.72,6.74-7.36V24.43h6.91v29.9H288.7V49.69C286.78,52.52,284,55,279.36,55c-6.74,0-10.66-4.53-10.66-11.5" transform="translate(-3.44 -2.39)" fill="#fff"/><path d="M300,50.43l3.06-4.65a16.92,16.92,0,0,0,9.8,3.69c2.94,0,4.64-1.25,4.64-3.23v-.12c0-2.32-3.17-3.11-6.68-4.19-4.42-1.24-9.35-3.06-9.35-8.78V33c0-5.67,4.71-9.12,10.65-9.12a20.67,20.67,0,0,1,11,3.4l-2.72,4.87A17.32,17.32,0,0,0,312,29.36c-2.66,0-4.19,1.24-4.19,2.94v.12c0,2.2,3.23,3.11,6.74,4.24,4.36,1.36,9.29,3.35,9.29,8.73v.11c0,6.29-4.87,9.4-11.1,9.4A21,21,0,0,1,300,50.43" transform="translate(-3.44 -2.39)" fill="#fff"/><path d="M329.26,13.33h7.36v6.51h-7.36Zm.28,11.1h6.86v29.9h-6.86Z" transform="translate(-3.44 -2.39)" fill="#fff"/><path d="M343.65,24.43h6.85V29c1.93-2.78,4.7-5.22,9.34-5.22,6.74,0,10.65,4.54,10.65,11.45V54.33h-6.85v-17c0-4.64-2.33-7.3-6.4-7.3s-6.74,2.77-6.74,7.42V54.33h-6.85Z" transform="translate(-3.44 -2.39)" fill="#fff"/><path d="M375.42,39.5v-.12c0-8.55,6.06-15.58,14.62-15.58,9.51,0,14.33,7.48,14.33,16.09,0,.63-.06,1.25-.11,1.93h-22c.73,4.87,4.19,7.59,8.61,7.59a10.89,10.89,0,0,0,8.1-3.57l4,3.57A15.15,15.15,0,0,1,390.77,55c-8.67,0-15.35-6.29-15.35-15.52m22.15-2.21c-.46-4.42-3.06-7.88-7.59-7.88-4.19,0-7.13,3.23-7.76,7.88Z" transform="translate(-3.44 -2.39)" fill="#fff"/><path d="M407.13,50.43l3.07-4.65A16.86,16.86,0,0,0,420,49.47c2.95,0,4.66-1.25,4.66-3.23v-.12c0-2.32-3.18-3.11-6.69-4.19-4.42-1.24-9.34-3.06-9.34-8.78V33c0-5.67,4.69-9.12,10.64-9.12a20.69,20.69,0,0,1,11,3.4l-2.72,4.87a17.26,17.26,0,0,0-8.44-2.83c-2.66,0-4.19,1.24-4.19,2.94v.12c0,2.2,3.23,3.11,6.74,4.24C426,38,430.93,40,430.93,45.39v.11c0,6.29-4.87,9.4-11.1,9.4a21.09,21.09,0,0,1-12.7-4.47" transform="translate(-3.44 -2.39)" fill="#fff"/><path d="M433.81,50.43l3.07-4.65a16.92,16.92,0,0,0,9.8,3.69c2.94,0,4.64-1.25,4.64-3.23v-.12c0-2.32-3.17-3.11-6.68-4.19-4.43-1.24-9.35-3.06-9.35-8.78V33c0-5.67,4.7-9.12,10.65-9.12a20.69,20.69,0,0,1,11,3.4l-2.72,4.87a17.29,17.29,0,0,0-8.44-2.83c-2.66,0-4.19,1.24-4.19,2.94v.12c0,2.2,3.23,3.11,6.74,4.24,4.36,1.36,9.28,3.35,9.28,8.73v.11c0,6.29-4.87,9.4-11.09,9.4a21.09,21.09,0,0,1-12.7-4.47" transform="translate(-3.44 -2.39)" fill="#fff"/><path d="M11.16,85.86H6.74l-.53,1.22a2.73,2.73,0,0,0-.26,1,.84.84,0,0,0,.43.78,3.65,3.65,0,0,0,1.22.23v.34H3.44v-.34a1.91,1.91,0,0,0,1.11-.56,8.14,8.14,0,0,0,1.07-1.89l4.47-10h.18l4.5,10.25a6,6,0,0,0,1.07,1.84,1.5,1.5,0,0,0,.88.34v.34h-6v-.34h.25a1.8,1.8,0,0,0,1-.21.49.49,0,0,0,.21-.43,1,1,0,0,0-.06-.33,5.16,5.16,0,0,0-.28-.7Zm-.32-.68L9,80.87,7.06,85.18Z" transform="translate(-3.44 -2.39)" fill="#fff" fill-rule="evenodd"/><path d="M24.39,80.8v6.75a2.59,2.59,0,0,0,.18,1.24,1.07,1.07,0,0,0,.75.3v.34H21.81V88.27a4.46,4.46,0,0,1-1.24,1.08,2.84,2.84,0,0,1-1.38.33,2.13,2.13,0,0,1-1.31-.44,2.31,2.31,0,0,1-.74-1,7.66,7.66,0,0,1-.2-2.1V82.67a2.34,2.34,0,0,0-.19-1.22,1.1,1.1,0,0,0-.75-.31V80.8h3.52v5.89a5.73,5.73,0,0,0,.08,1.2.85.85,0,0,0,.28.4.77.77,0,0,0,.45.13,1.11,1.11,0,0,0,.59-.16,4.39,4.39,0,0,0,.89-1V82.67a2.62,2.62,0,0,0-.18-1.22,1.17,1.17,0,0,0-.76-.31V80.8Z" transform="translate(-3.44 -2.39)" fill="#fff"/><path d="M31.36,80.56l.14,2.94h-.32A4.55,4.55,0,0,0,30,81.71a1.9,1.9,0,0,0-1.2-.48.9.9,0,0,0-.64.26.76.76,0,0,0-.26.58.74.74,0,0,0,.17.48,9.55,9.55,0,0,0,1.65,1.3,6.74,6.74,0,0,1,1.79,1.56A2.46,2.46,0,0,1,32,86.84a3,3,0,0,1-.36,1.41,2.54,2.54,0,0,1-1,1.06,2.81,2.81,0,0,1-1.44.37,4.89,4.89,0,0,1-1.65-.38,1.11,1.11,0,0,0-.39-.11c-.19,0-.36.15-.5.47h-.3l-.15-3.11h.32a3.91,3.91,0,0,0,1.13,1.83A2.16,2.16,0,0,0,29,89a1,1,0,0,0,.72-.27.88.88,0,0,0,.28-.66,1.12,1.12,0,0,0-.27-.77,7.76,7.76,0,0,0-1.23-1,9.35,9.35,0,0,1-1.83-1.49A2.57,2.57,0,0,1,26,83.15a2.7,2.7,0,0,1,.68-1.8,2.49,2.49,0,0,1,2-.81,3,3,0,0,1,1.35.34,1,1,0,0,0,.4.14.49.49,0,0,0,.27-.06,2.1,2.1,0,0,0,.33-.4Z" transform="translate(-3.44 -2.39)" fill="#fff"/><path d="M35.93,77.64V80.8h2v.91h-2V87A4.76,4.76,0,0,0,36,88a.9.9,0,0,0,.25.35.56.56,0,0,0,.32.13c.4,0,.79-.3,1.14-.91l.28.2a2.54,2.54,0,0,1-2.43,1.77,2.17,2.17,0,0,1-1.39-.45,2,2,0,0,1-.72-1,8.62,8.62,0,0,1-.1-1.7V81.71H32.22v-.32a11.28,11.28,0,0,0,2-1.73,11,11,0,0,0,1.44-2Z" transform="translate(-3.44 -2.39)" fill="#fff"/><path d="M42.19,80.8v2A6.24,6.24,0,0,1,43.69,81a2.26,2.26,0,0,1,1.25-.44,1.06,1.06,0,0,1,.82.33,1.17,1.17,0,0,1,.31.88,1.43,1.43,0,0,1-.3,1,1,1,0,0,1-.72.34,1.23,1.23,0,0,1-.85-.32c-.24-.2-.38-.32-.43-.35a.46.46,0,0,0-.21,0,.75.75,0,0,0-.51.2,1.88,1.88,0,0,0-.57.89,6.23,6.23,0,0,0-.29,2v2.5a2.21,2.21,0,0,0,.06.67.84.84,0,0,0,.32.37,2,2,0,0,0,.74.14v.34H38.66v-.34a1,1,0,0,0,.76-.3,2.94,2.94,0,0,0,.2-1.39V82.62a3.63,3.63,0,0,0-.07-.94.76.76,0,0,0-.27-.37,1.28,1.28,0,0,0-.62-.17V80.8Z" transform="translate(-3.44 -2.39)" fill="#fff"/><path d="M50.81,88.15A4.52,4.52,0,0,1,48,89.54a1.66,1.66,0,0,1-1.71-1.69,2.34,2.34,0,0,1,.85-1.77,15.31,15.31,0,0,1,3.7-2.1v-.87a3.65,3.65,0,0,0-.12-1.23.92.92,0,0,0-.39-.45,1.27,1.27,0,0,0-.66-.19,1.68,1.68,0,0,0-1,.27.47.47,0,0,0-.24.39.81.81,0,0,0,.26.48,1.17,1.17,0,0,1,.35.76,1.08,1.08,0,0,1-.34.78,1.27,1.27,0,0,1-.88.31,1.36,1.36,0,0,1-1-.35,1.08,1.08,0,0,1-.4-.82A1.88,1.88,0,0,1,47,81.8a3.21,3.21,0,0,1,1.47-.93,5.59,5.59,0,0,1,2-.33,3.19,3.19,0,0,1,1.94.52,2.46,2.46,0,0,1,.93,1.13A7.48,7.48,0,0,1,53.39,84v3.34a3.62,3.62,0,0,0,0,.74.47.47,0,0,0,.13.23.34.34,0,0,0,.22.07c.16,0,.32-.11.49-.33l.28.21a3.32,3.32,0,0,1-1,1,2,2,0,0,1-1.11.3,1.73,1.73,0,0,1-1.15-.34,1.55,1.55,0,0,1-.51-1m0-.68V84.59A5.3,5.3,0,0,0,49.15,86a1.64,1.64,0,0,0-.36,1,1.09,1.09,0,0,0,.3.75.84.84,0,0,0,.65.25,1.75,1.75,0,0,0,1.07-.52" transform="translate(-3.44 -2.39)" fill="#fff" fill-rule="evenodd"/><path d="M58.3,76.92V87.63a2,2,0,0,0,.22,1.18,1.2,1.2,0,0,0,.83.28v.34H54.68v-.34a1.13,1.13,0,0,0,.86-.33,2,2,0,0,0,.18-1.13V78.7a2,2,0,0,0-.21-1.15,1.15,1.15,0,0,0-.83-.3v-.33Z" transform="translate(-3.44 -2.39)" fill="#fff"/><path d="M62.25,76.62a1.36,1.36,0,0,1,1,.43,1.38,1.38,0,0,1,.42,1,1.4,1.4,0,0,1-.43,1,1.41,1.41,0,0,1-1,.41,1.37,1.37,0,0,1-1-.41,1.39,1.39,0,0,1-.42-1,1.34,1.34,0,0,1,.42-1,1.32,1.32,0,0,1,1-.43m1.29,4.18v6.83a2,2,0,0,0,.22,1.17,1.15,1.15,0,0,0,.83.29v.34H59.93v-.34a1.07,1.07,0,0,0,.84-.33A2,2,0,0,0,61,87.63v-5a2,2,0,0,0-.22-1.16,1.12,1.12,0,0,0-.81-.29V80.8Z" transform="translate(-3.44 -2.39)" fill="#fff" fill-rule="evenodd"/><path d="M69.62,88.15a4.54,4.54,0,0,1-2.83,1.39,1.66,1.66,0,0,1-1.72-1.69,2.34,2.34,0,0,1,.85-1.77,15.52,15.52,0,0,1,3.7-2.1v-.87a4.08,4.08,0,0,0-.11-1.23,1,1,0,0,0-.4-.45,1.27,1.27,0,0,0-.66-.19,1.7,1.7,0,0,0-1,.27.47.47,0,0,0-.24.39.88.88,0,0,0,.26.48,1.12,1.12,0,0,1,.35.76,1,1,0,0,1-.34.78,1.26,1.26,0,0,1-.88.31,1.38,1.38,0,0,1-1-.35,1,1,0,0,1-.4-.82,1.88,1.88,0,0,1,.53-1.26,3.21,3.21,0,0,1,1.47-.93,5.64,5.64,0,0,1,2-.33,3.18,3.18,0,0,1,1.93.52,2.4,2.4,0,0,1,.93,1.13A7.69,7.69,0,0,1,72.19,84v3.34a3.34,3.34,0,0,0,0,.74.48.48,0,0,0,.14.23.31.31,0,0,0,.2.07.67.67,0,0,0,.5-.33l.27.21a3.3,3.3,0,0,1-1,1,2,2,0,0,1-1.11.3,1.73,1.73,0,0,1-1.15-.34,1.55,1.55,0,0,1-.51-1m0-.68V84.59A5.42,5.42,0,0,0,68,86a1.7,1.7,0,0,0-.36,1,1.05,1.05,0,0,0,.3.75.84.84,0,0,0,.65.25,1.75,1.75,0,0,0,1.07-.52" transform="translate(-3.44 -2.39)" fill="#fff" fill-rule="evenodd"/><path d="M77.08,80.8v1.12a4.92,4.92,0,0,1,1.26-1,2.75,2.75,0,0,1,1.32-.33,2.11,2.11,0,0,1,1.39.47,2.28,2.28,0,0,1,.74,1.16,9.27,9.27,0,0,1,.15,2v3.36a2.66,2.66,0,0,0,.17,1.25,1.05,1.05,0,0,0,.75.3v.34H78.5v-.34a.91.91,0,0,0,.7-.4,2.46,2.46,0,0,0,.16-1.15V83.7a6.4,6.4,0,0,0-.09-1.33.74.74,0,0,0-.29-.43.68.68,0,0,0-.43-.15c-.53,0-1,.38-1.47,1.13v4.62a2.75,2.75,0,0,0,.17,1.23.91.91,0,0,0,.67.32v.34H73.56v-.34a1.06,1.06,0,0,0,.77-.35,2.5,2.5,0,0,0,.16-1.2V82.67a2.34,2.34,0,0,0-.19-1.22,1.07,1.07,0,0,0-.74-.31V80.8Z" transform="translate(-3.44 -2.39)" fill="#fff"/><path d="M99.86,76.63V81h-.35a5.53,5.53,0,0,0-1.86-2.75,4.32,4.32,0,0,0-2.7-1,3.42,3.42,0,0,0-2.32.8,4.1,4.1,0,0,0-1.32,2.2,10.44,10.44,0,0,0-.39,2.89,11.06,11.06,0,0,0,.41,3.16,3.7,3.7,0,0,0,1.37,2A4,4,0,0,0,95,89a4.19,4.19,0,0,0,.93-.09,5.9,5.9,0,0,0,1-.28V86a2.87,2.87,0,0,0-.09-1,.92.92,0,0,0-.43-.39,1.52,1.52,0,0,0-.76-.17h-.33v-.35h6.08v.35a2.63,2.63,0,0,0-1,.19.91.91,0,0,0-.41.47,2.52,2.52,0,0,0-.08.86v2.6a13.62,13.62,0,0,1-2.51.81,13,13,0,0,1-2.68.26,7.92,7.92,0,0,1-3-.47A7.72,7.72,0,0,1,89.64,88a6,6,0,0,1-1.4-1.78,6.13,6.13,0,0,1-.65-2.85,6.44,6.44,0,0,1,2-4.78,6.84,6.84,0,0,1,5-1.94,8.63,8.63,0,0,1,1.69.15,7.84,7.84,0,0,1,1.31.42,5.38,5.38,0,0,0,1.08.34.73.73,0,0,0,.48-.19,1.57,1.57,0,0,0,.4-.71Z" transform="translate(-3.44 -2.39)" fill="#fff"/><path d="M105.85,80.54a4,4,0,0,1,2.09.58,3.62,3.62,0,0,1,1.46,1.65,5.41,5.41,0,0,1,.51,2.34,5,5,0,0,1-.93,3.08,3.69,3.69,0,0,1-3.11,1.49,3.64,3.64,0,0,1-3-1.36,5.38,5.38,0,0,1,0-6.4,3.55,3.55,0,0,1,3-1.38m0,.65a1.07,1.07,0,0,0-.81.36,2.59,2.59,0,0,0-.45,1.41c-.06.69-.09,1.66-.09,2.9a13.37,13.37,0,0,0,.12,1.85,1.86,1.86,0,0,0,.43,1,1,1,0,0,0,.77.34,1.08,1.08,0,0,0,.69-.22,1.48,1.48,0,0,0,.47-.89,20.25,20.25,0,0,0,.19-3.54,8.38,8.38,0,0,0-.18-2.14,1.68,1.68,0,0,0-.51-.86,1,1,0,0,0-.63-.2" transform="translate(-3.44 -2.39)" fill="#fff" fill-rule="evenodd"/><path d="M114,89.68,111.07,83a7.73,7.73,0,0,0-.81-1.53,1.08,1.08,0,0,0-.63-.32V80.8h4.58v.34a.8.8,0,0,0-.59.16.6.6,0,0,0-.22.47,3.88,3.88,0,0,0,.41,1.29l1.41,3.24,1.14-2.8a5.33,5.33,0,0,0,.49-1.7.57.57,0,0,0-.21-.46,1.13,1.13,0,0,0-.74-.2V80.8h2.83v.34a1.19,1.19,0,0,0-.67.31,6.14,6.14,0,0,0-.77,1.46l-2.87,6.77Z" transform="translate(-3.44 -2.39)" fill="#fff"/><path d="M125.52,84.8h-4.73a4.35,4.35,0,0,0,.91,2.71,1.89,1.89,0,0,0,1.53.77,1.76,1.76,0,0,0,1-.3,4,4,0,0,0,1-1.12l.31.2a5.38,5.38,0,0,1-1.55,2,3.59,3.59,0,0,1-4.87-.88,5.23,5.23,0,0,1-.8-3,4.92,4.92,0,0,1,1.17-3.43,3.61,3.61,0,0,1,2.74-1.28,3,3,0,0,1,2.27,1.08,4.89,4.89,0,0,1,1,3.18m-2.27-.62a8.42,8.42,0,0,0-.16-2,1.67,1.67,0,0,0-.51-.84.75.75,0,0,0-.51-.17.94.94,0,0,0-.79.48,4.07,4.07,0,0,0-.54,2.25v.32Z" transform="translate(-3.44 -2.39)" fill="#fff" fill-rule="evenodd"/><path d="M129.61,80.8v2a6.4,6.4,0,0,1,1.5-1.77,2.26,2.26,0,0,1,1.25-.44,1.12,1.12,0,0,1,.83.33,1.21,1.21,0,0,1,.31.88,1.43,1.43,0,0,1-.31,1,.93.93,0,0,1-.72.34,1.19,1.19,0,0,1-.84-.32l-.43-.35a.54.54,0,0,0-.22,0,.77.77,0,0,0-.51.2,2,2,0,0,0-.57.89,6.53,6.53,0,0,0-.29,2v2.5a2.21,2.21,0,0,0,.06.67A.75.75,0,0,0,130,89a1.9,1.9,0,0,0,.73.14v.34h-4.65v-.34a1,1,0,0,0,.75-.3,2.78,2.78,0,0,0,.21-1.39V82.62a3.47,3.47,0,0,0-.08-.94.71.71,0,0,0-.27-.37,1.24,1.24,0,0,0-.61-.17V80.8Z" transform="translate(-3.44 -2.39)" fill="#fff"/><path d="M137.56,80.8v1.12a5.12,5.12,0,0,1,1.27-1,2.75,2.75,0,0,1,1.32-.33,2.09,2.09,0,0,1,1.39.47,2.28,2.28,0,0,1,.74,1.16,9.48,9.48,0,0,1,.14,2v3.36a2.61,2.61,0,0,0,.18,1.25,1.06,1.06,0,0,0,.76.3v.34H139v-.34a.93.93,0,0,0,.7-.4,2.66,2.66,0,0,0,.15-1.15V83.7a8.06,8.06,0,0,0-.07-1.33.86.86,0,0,0-.3-.43.67.67,0,0,0-.44-.15c-.52,0-1,.38-1.47,1.13v4.62a2.75,2.75,0,0,0,.17,1.23,1,1,0,0,0,.68.32v.34h-4.36v-.34a1.08,1.08,0,0,0,.78-.35,2.75,2.75,0,0,0,.14-1.2V82.67a2.67,2.67,0,0,0-.17-1.22,1.14,1.14,0,0,0-.75-.31V80.8Z" transform="translate(-3.44 -2.39)" fill="#fff"/><path d="M147.55,80.8v1.14a5.34,5.34,0,0,1,1.32-1.09,3,3,0,0,1,1.32-.31,2.38,2.38,0,0,1,1.4.39,2.3,2.3,0,0,1,.86,1.17,5.56,5.56,0,0,1,1.42-1.19,3,3,0,0,1,1.41-.37,2.21,2.21,0,0,1,1.43.42,2,2,0,0,1,.74,1,7.31,7.31,0,0,1,.21,2v3.53a2.42,2.42,0,0,0,.18,1.24,1.12,1.12,0,0,0,.75.31v.34h-4.45v-.34a1,1,0,0,0,.77-.4,2.48,2.48,0,0,0,.17-1.15V83.83a6.71,6.71,0,0,0-.1-1.46.86.86,0,0,0-.29-.47.73.73,0,0,0-.46-.15,1.43,1.43,0,0,0-.81.29,3.84,3.84,0,0,0-.81.87v4.63a2.59,2.59,0,0,0,.15,1.17,1,1,0,0,0,.81.38v.34h-4.46v-.34a.93.93,0,0,0,.56-.18.73.73,0,0,0,.28-.38,4.12,4.12,0,0,0,.07-1V83.83a6.77,6.77,0,0,0-.09-1.46.91.91,0,0,0-.31-.47.74.74,0,0,0-.46-.16,1.16,1.16,0,0,0-.68.2,3.62,3.62,0,0,0-.93,1v4.63a2.67,2.67,0,0,0,.18,1.21,1,1,0,0,0,.76.34v.34h-4.44v-.34a1.06,1.06,0,0,0,.77-.35,2.64,2.64,0,0,0,.16-1.2V82.67a2.31,2.31,0,0,0-.2-1.22,1,1,0,0,0-.73-.31V80.8Z" transform="translate(-3.44 -2.39)" fill="#fff"/><path d="M166.27,84.8h-4.74a4.48,4.48,0,0,0,.92,2.71,1.89,1.89,0,0,0,1.52.77,1.76,1.76,0,0,0,1-.3,4,4,0,0,0,1-1.12l.31.2a5.29,5.29,0,0,1-1.56,2,3.27,3.27,0,0,1-2,.59,3.31,3.31,0,0,1-2.91-1.47,5.31,5.31,0,0,1-.79-3,4.92,4.92,0,0,1,1.17-3.43A3.59,3.59,0,0,1,163,80.54a2.92,2.92,0,0,1,2.27,1.08,4.89,4.89,0,0,1,1.05,3.18M164,84.18a7.92,7.92,0,0,0-.16-2,1.65,1.65,0,0,0-.49-.84.81.81,0,0,0-.52-.17.92.92,0,0,0-.79.48,4.07,4.07,0,0,0-.54,2.25v.32Z" transform="translate(-3.44 -2.39)" fill="#fff" fill-rule="evenodd"/><path d="M170.12,80.8v1.12a4.79,4.79,0,0,1,1.27-1,2.71,2.71,0,0,1,1.31-.33,2.09,2.09,0,0,1,1.39.47,2.22,2.22,0,0,1,.74,1.16,9.27,9.27,0,0,1,.15,2v3.36a2.8,2.8,0,0,0,.17,1.25,1.07,1.07,0,0,0,.75.3v.34h-4.35v-.34a.93.93,0,0,0,.7-.4,2.66,2.66,0,0,0,.15-1.15V83.7a5.73,5.73,0,0,0-.09-1.33.79.79,0,0,0-.29-.43.66.66,0,0,0-.43-.15c-.53,0-1,.38-1.47,1.13v4.62a2.61,2.61,0,0,0,.17,1.23.93.93,0,0,0,.68.32v.34H166.6v-.34a1.1,1.1,0,0,0,.78-.35,2.69,2.69,0,0,0,.15-1.2V82.67a2.49,2.49,0,0,0-.18-1.22,1.14,1.14,0,0,0-.75-.31V80.8Z" transform="translate(-3.44 -2.39)" fill="#fff"/><path d="M179.57,77.64V80.8h2.05v.91h-2.05V87a4.51,4.51,0,0,0,.07,1,.73.73,0,0,0,.25.35.51.51,0,0,0,.33.13c.39,0,.78-.3,1.13-.91l.27.2a2.51,2.51,0,0,1-2.42,1.77,2.17,2.17,0,0,1-1.39-.45,2.06,2.06,0,0,1-.73-1,9,9,0,0,1-.09-1.7V81.71h-1.12v-.32a11.28,11.28,0,0,0,2-1.73,10.08,10.08,0,0,0,1.43-2Z" transform="translate(-3.44 -2.39)" fill="#fff"/><path d="M77.57,57.13a.69.69,0,0,1-.24.24" transform="translate(-3.44 -2.39)" fill="#fff"/><path d="M79.73,40.24a.46.46,0,0,0,.45-.46.45.45,0,0,0-.45-.45.44.44,0,0,0-.45.45.45.45,0,0,0,.45.46" transform="translate(-3.44 -2.39)" fill="#fff"/><path d="M100.65,21.16H84.38V34.31A3,3,0,0,0,85.67,37l6.27,3.74a.72.72,0,0,0,.57.26.75.75,0,0,0,.5-.2L99.37,37a3,3,0,0,0,1.27-2.71l0-13.15ZM89.79,25H88.38V21.6h1.41Zm-1,1.18.19-.21-.12-.23.26,0,.16-.27.16.27.27,0-.12.23.2.21-.26.05v.28l-.25-.18-.24.18v-.28Zm-3.93,1h1.71v3.19H84.84Zm.28-1.43.26,0,.17-.27.15.27.26,0-.12.23.2.21-.25.05v.28l-.24-.18-.25.18v-.28L85,26.14l.21-.21ZM87.05,29l.26,0,.16-.27.16.27.26,0-.12.23.2.21-.26,0v.29l-.24-.19-.24.19v-.29l-.25,0,.2-.21Zm1.13-2.57c0-.09-.12-.12-.16-.12s-.22.26-.35.27-.16,0-.16-.1.2-.16.27-.23c-1.06,0-1.07.49-1.24.49s.23-.52.38-.67c-.21,0-.34-.29-.58-.42.11-.16.18-.09.32,0,0-.11.08-.24.32-.24.48,0,.34.45.42.45s0-.45.31-.45c.47,0,1.06,1.2.53,1.2-.23,0,0-.17-.06-.2M87,22.86l.2-.21-.13-.22.26,0,.16-.28.16.28.26,0-.12.22.2.21-.26.05v.28L87.47,23l-.24.18v-.28ZM86.55,25H84.84V21.6h1.71Zm3.24,14-3.9-2.33a2.79,2.79,0,0,1-1-2.16v-3.7h5ZM88.38,27.13h1.41v3.19H88.38Zm6.43,12.1L93,40.3h0a.73.73,0,0,1-1,0l-1.79-1.06V30.77h4.58Zm0-8.91H90.22V21.6h4.59Zm5.39,4.15a2.82,2.82,0,0,1-1,2.16L95.25,39V30.77h5Zm0-4.15h-5V21.6h5Z" transform="translate(-3.44 -2.39)" fill="#fff"/><path d="M89.53,33.78c0-.05-.62.2-.46.19a1.9,1.9,0,0,1,.5-.68c0-.21-.29,0-.57.13.92-1.33.33-.78-.18-.69.82-.89.6-.88,0-.6.47-.38.58-.83.51-1-.46.6-.87.51-.87,1.06a2.3,2.3,0,0,1-.32,1.17c-.24.26-.06-1-.69-1-.21,0-.68,0-.83.23.13,0,.32.33.32.46s.12.5-.09.5-.48-.46-.48-.68,0-.17,0-.49c0-.52-.86-1.26-1.2-1.26,0,.37.48.46.48.92-.21,0-.5-.38-.5-.14s.31.28.31.48-.35-.07-.35.15.19.15.24.34c-.14,0-.27,0-.3.06s0,.14.15.2-.09.16-.09.46c0,1,.65,1.53,1.13,1.53s.28-.25.33-.36c0,.18.18-.08.18.22s-.33.18-.33.46.52,0,.52.4a4.82,4.82,0,0,1-.06.67c0,.13.55-.18.51-.24.13.05.13.44.37.43s.19-.4.31-.43c-.07,0,.5.37.5.19,0-.49-.21-.27-.21-.61s.68-.25.57-.4-.15,0-.22-.28c0,0-.52-.77.12-.35s.75-1,.71-1.1" transform="translate(-3.44 -2.39)" fill="#fff"/><path d="M106.89,37.22a.51.51,0,0,0,.54-.47.51.51,0,0,0-.54-.47.49.49,0,0,0-.53.47.5.5,0,0,0,.53.47" transform="translate(-3.44 -2.39)" fill="#fff"/><path d="M104.73,38.5a.5.5,0,0,0,.53-.47.51.51,0,0,0-.53-.47.52.52,0,0,0-.55.47.52.52,0,0,0,.55.47" transform="translate(-3.44 -2.39)" fill="#fff"/><path d="M79,41.47a.5.5,0,0,0,.53-.47.51.51,0,0,0-.53-.48.51.51,0,0,0-.53.48.5.5,0,0,0,.53.47" transform="translate(-3.44 -2.39)" fill="#fff"/><path d="M80.66,41.61a.47.47,0,1,0-.53-.47.5.5,0,0,0,.53.47" transform="translate(-3.44 -2.39)" fill="#fff"/><path d="M127,19.17a3.39,3.39,0,0,1,.4,3.55c-.32,0-.26-.43-.32-.66a4.21,4.21,0,0,1-.5-3.6c.37.05.22.51.42.71" transform="translate(-3.44 -2.39)" fill="#fff"/><path d="M59,20.45a5.11,5.11,0,0,0,0,2.27c-.14.13-.11-.15-.25-.12-1.11-.8-.59-2.37-.88-3.48a.23.23,0,0,1,.29-.07,2.09,2.09,0,0,1,.84,1.4" transform="translate(-3.44 -2.39)" fill="#fff"/><path d="M129.42,20.54c.17.32-.14.63-.37.77a.76.76,0,0,1-.71-.31.65.65,0,0,1,.35-.74.72.72,0,0,1,.73.28" transform="translate(-3.44 -2.39)" fill="#fff"/><path d="M57.29,21.8a.83.83,0,0,1-.37.63c-.17,0-.42,0-.53-.14a.52.52,0,0,1-.12-.61.69.69,0,0,1,.54-.25c.2.08.4.14.48.37" transform="translate(-3.44 -2.39)" fill="#fff"/><path d="M130.52,22.29a.51.51,0,0,1,0,.45.64.64,0,0,1-.76.26.77.77,0,0,1-.31-.49.89.89,0,0,1,.48-.51.86.86,0,0,1,.59.29" transform="translate(-3.44 -2.39)" fill="#fff"/><path d="M128.91,22.31c.23.12.06.41,0,.58s-.33.37-.59.28S128,23,128,22.83a.64.64,0,0,1,.4-.66c.23-.06.37.06.54.14" transform="translate(-3.44 -2.39)" fill="#fff"/><path d="M126.84,22.74c0,.32,0,.71-.34.77a.54.54,0,0,1-.66-.39.68.68,0,0,1,.43-.69.77.77,0,0,1,.57.31" transform="translate(-3.44 -2.39)" fill="#fff"/><path d="M60.39,22.89c.08.28-.2.45-.38.6a.59.59,0,0,1-.57-.32c-.19-.2.06-.37.12-.54a.53.53,0,0,1,.83.26" transform="translate(-3.44 -2.39)" fill="#fff"/><path d="M58.68,23a.57.57,0,0,1-.31.54.49.49,0,0,1-.56-.25.48.48,0,0,1,.24-.66c.32-.12.52.17.63.37" transform="translate(-3.44 -2.39)" fill="#fff"/><path d="M120,23.09a6.09,6.09,0,0,1,.57,2.05c-.12.54.09,1.26-.32,1.63-.39-.14-.42-.63-.67-.89-.52-1-.06-2.17.1-3.14.23-.08.23.2.32.35" transform="translate(-3.44 -2.39)" fill="#fff"/><path d="M57.35,23.43c.08.34-.18.52-.37.71a.66.66,0,0,1-.71-.39.7.7,0,0,1,.37-.69.72.72,0,0,1,.71.37" transform="translate(-3.44 -2.39)" fill="#fff"/><path d="M124.45,24.26a4.08,4.08,0,0,1,.14,2.74l-.17.15a12.26,12.26,0,0,1-1.16-2.32,3.78,3.78,0,0,1,.34-1.63c.2-.14.32,0,.4.2a1.15,1.15,0,0,0,.45.86" transform="translate(-3.44 -2.39)" fill="#fff"/><path d="M128,23.75a.76.76,0,0,1-.42.68.52.52,0,0,1-.66-.34.62.62,0,0,1,.31-.69c.32-.17.62.11.77.35" transform="translate(-3.44 -2.39)" fill="#fff"/><path d="M58.71,24.63a.61.61,0,0,1-.42.54c-.24.17-.4-.12-.6-.2a.67.67,0,0,1,0-.66c.08-.17.28-.17.45-.22.26.14.51.25.57.54" transform="translate(-3.44 -2.39)" fill="#fff"/><path d="M60,24.49c.11.28-.2.42-.31.57-.34.11-.51-.15-.66-.34a.64.64,0,0,1,.32-.63c.34-.09.51.14.65.4" transform="translate(-3.44 -2.39)" fill="#fff"/><path d="M128.83,24.4c0,.37-.6.74-.66,1.11a2.82,2.82,0,0,1-1.76,1.6,1.28,1.28,0,0,1-.65.37c-.06-.57.45-1.08.77-1.6a4.16,4.16,0,0,1,2.3-1.48" transform="translate(-3.44 -2.39)" fill="#fff"/><path d="M58.14,25.6A12.29,12.29,0,0,0,59.31,27a.23.23,0,0,1-.2.28c-1.39-.08-2.32-1.52-3-2.51.08-.32.45-.06.65-.09.49.37,1,.48,1.39,1" transform="translate(-3.44 -2.39)" fill="#fff"/><path d="M129.22,26a3.72,3.72,0,0,1-1.75,3.09c-.32.11-.66.43-1,.22A14.44,14.44,0,0,1,129,26Z" transform="translate(-3.44 -2.39)" fill="#fff"/><path d="M123.77,26.83a.69.69,0,0,1-.49.83c-.3,0-.51-.23-.64-.46a.58.58,0,0,1,.4-.63.47.47,0,0,1,.33-.08c.18.05.26.19.4.34" transform="translate(-3.44 -2.39)" fill="#fff"/><path d="M56.58,27.09a14.62,14.62,0,0,1,1.54,1.34c-.37.26-.83,0-1.25,0-1-.34-1.62-1.17-2.61-1.46,0-.32.39-.2.59-.28a4.75,4.75,0,0,1,1.73.37" transform="translate(-3.44 -2.39)" fill="#fff"/><path d="M87,18.62c-1.59-.62-2.65,1-4.27.83-.19.12-.14.32-.25.46s-.23,0-.31,0c-.09-.68-.32-1.31-.4-2-.17-.29-.09-.68-.23-1-.9-2.49,2.21-.6,2.84-2.06.54-1.26-1.05-1.4-1.53-2.28v-.38c-.46-.45-.94-.6-1.22-1.2a4.12,4.12,0,0,0,.08-2.2c0-.17-.14-.4-.4-.32-.53.75-.93,1.35-1.44,2.07A14.49,14.49,0,0,0,78.18,9.3c-.43-.05-.82-.48-1.3-.31a.39.39,0,0,0,.08.43,4.08,4.08,0,0,0,1.4,2.8l.08.43a12.85,12.85,0,0,0-.51,3.77,21,21,0,0,1-6.16,8.67c-1.62,1.82-3.55,3.6-3.8,6.11-.1.4,0,.89-.26,1.18A9.71,9.71,0,0,1,65.07,31c-1.3-.91-3.18-.8-4-2.46-.34-.66.09-1.31.4-1.79,1-.92.82-2.54.31-3.66-.11,0-.15.11-.23.14-.08,1.68-1.42,2.86-.91,4.71.12.55.4.89.54,1.4a3.41,3.41,0,0,1-.65-.14,7.18,7.18,0,0,0-1.9-.25c-1.31.6-3.1-.14-4.15,1.06-.17,0-.4.05-.34.31.63,0,1.22.17,1.86.14,1,.17,1.64-.66,2.32-1h.17c.28-.28.76-.12,1.13-.17a11.45,11.45,0,0,1,4.66,1.94v.12c-.56.26-1.22.43-1.79.74A3.91,3.91,0,0,0,60.87,34c-.45.71.14,1.34.43,1.94,0,.29.05.63.3.74.92-1,.06-2.17.21-3.28a2.3,2.3,0,0,1,1.84-1.49c1.62-.69,2.78.63,4.09,1.37a20.65,20.65,0,0,1-.14,3.86,3.39,3.39,0,0,1-1.34.21c-2.24.16-4,1.4-6,2.08-.9.32-2,.29-2.89.63a7.29,7.29,0,0,0,2.18-.08c2.79-.4,4.92-2.55,7.92-2.18l.06.09a6.86,6.86,0,0,1-1.33,1.86c-.09-.32-.11-.57-.4-.75a.53.53,0,0,0-.65.23.38.38,0,0,0,0,.43.88.88,0,0,0,.62.4c-.06.26-.37.37-.54.6-.79,1.34-2.41.8-3.35,1.74-.14.2-.65.32-.42.63a4.24,4.24,0,0,0,2.92-.74c1-1.17,2.16-2.29,3.2-3.4a3.36,3.36,0,0,1-.62,2.6,3.12,3.12,0,0,0-.76-.43.69.69,0,0,0-.51.57,1.69,1.69,0,0,0,.42.57,10.09,10.09,0,0,1-3.29,1.07,58,58,0,0,1-6.19.45c-1-.06-2.13.28-3.07,0-1.08.2-2.24-.14-3.12.46-.11.14,0,.28,0,.42,1.3.86,3.09.17,4.57.43H66.21a4.74,4.74,0,0,0,2.29-.43,8.18,8.18,0,0,0,3-3.77,5.79,5.79,0,0,0,.6-1.71,2.45,2.45,0,0,1,2.13-1.74,12.61,12.61,0,0,1-.49,4.34c-.16.92-.76,1.8-.39,2.77.09.46.57.46.93.52,3.44-.06,6.87-.21,10.51,0a8.73,8.73,0,0,0,1.93.29c.06-.09.25-.12.17-.29a1.08,1.08,0,0,0-.68-.8c-.06-.17-.31-.11-.4-.23-1.81-1-4-.48-6.13-.45a4.63,4.63,0,0,1-3.15-.31c-.43-.52-.11-2.15-.11-2.15a42.08,42.08,0,0,1,1.75-5.52,4.66,4.66,0,0,0,.17-1.31,5.29,5.29,0,0,0,.18-2,13.17,13.17,0,0,1,.88-2.66c.17-.43.3-.88.48-1.31a4.23,4.23,0,0,1,.56-1.49c.93.59,1.84.57,2.28,1.62l.39,2.38c0,.14.12.43.32.27.73-.5.51-1.58.51-2.32.17-.89-.45-1.33-.71-2.09a3.58,3.58,0,0,1-.53-.83c-.11-.63-1.49-1.06-1.18-1.83a2.33,2.33,0,0,1,1-1.63.31.31,0,0,1,.14.2l.34-.24L83,20c.92,0,2.29.11,3.23.11.25.09.45.29.73.31l.23-.31,2.3-.45c-1,.11-1.57-1-2.49-1" transform="translate(-3.44 -2.39)" fill="#fff"/><path d="M89.48,19.64l.22,0Z" transform="translate(-3.44 -2.39)" fill="#fff"/><path d="M64.76,27.6a.61.61,0,0,1-.43.65c-.22-.08-.4-.11-.54-.34s.17-.54.4-.65c.23.06.51.08.57.34" transform="translate(-3.44 -2.39)" fill="#fff"/><path d="M62.91,27.6a.61.61,0,0,1,.12.65c-.2.18-.51.32-.68.1s-.34-.38-.21-.61.55-.37.77-.14" transform="translate(-3.44 -2.39)" fill="#fff"/><path d="M102.42,27.92s0,0,0,0" transform="translate(-3.44 -2.39)" fill="#fff"/><path d="M124.06,28.41c.11.31-.14.53-.37.65-.28-.08-.65-.15-.65-.51a.53.53,0,0,1,.43-.43c.24-.09.47.11.59.29" transform="translate(-3.44 -2.39)" fill="#fff"/><path d="M125.56,28.35c.09.13.28.37,0,.51a1.23,1.23,0,0,0-.28.23.56.56,0,0,1-.68-.34c-.06-.32.2-.46.43-.61s.34.09.48.21" transform="translate(-3.44 -2.39)" fill="#fff"/><path d="M55.79,28.69a.57.57,0,0,1-.77.37,1.3,1.3,0,0,1-.23-.37c0-.21.09-.41.32-.49a.68.68,0,0,1,.68.49" transform="translate(-3.44 -2.39)" fill="#fff"/><path d="M65.36,29.17a.93.93,0,0,1-.49.54c-.28,0-.48-.19-.62-.4s.11-.51.34-.56a.63.63,0,0,1,.77.42" transform="translate(-3.44 -2.39)" fill="#fff"/><path d="M63.69,29a.44.44,0,0,1,.08.45c-.18.14-.43.4-.72.23s-.36-.26-.3-.54a1,1,0,0,1,.41-.34c.24-.06.35.08.53.2" transform="translate(-3.44 -2.39)" fill="#fff"/><path d="M129.9,29.31a.71.71,0,0,1-.37.54.53.53,0,0,1-.62-.14c-.17-.05-.11-.28-.11-.43a1,1,0,0,1,.54-.36,1,1,0,0,1,.56.39" transform="translate(-3.44 -2.39)" fill="#fff"/><path d="M131.72,29.57a.71.71,0,0,1-.54.52c-.17,0-.48-.09-.43-.34a.55.55,0,0,1,.26-.47.5.5,0,0,1,.71.29" transform="translate(-3.44 -2.39)" fill="#fff"/><path d="M59,30a.54.54,0,0,1-.34.68c-.19.12-.4,0-.54-.15a.49.49,0,0,1-.14-.57c0-.25.31-.19.49-.31A.68.68,0,0,1,59,30" transform="translate(-3.44 -2.39)" fill="#fff"/><path d="M60.42,30.23c.08.23-.18.31-.23.48a.47.47,0,0,1-.51.07c-.2-.18-.43-.43-.24-.69.24-.43.83-.2,1,.14" transform="translate(-3.44 -2.39)" fill="#fff"/><path d="M128.23,30.09c0,.28-.23.48-.4.66a.5.5,0,0,1-.57-.35.6.6,0,0,1,.32-.54.62.62,0,0,1,.65.23" transform="translate(-3.44 -2.39)" fill="#fff"/><path d="M130.55,30.54c-.05.27,0,.56-.31.72a.81.81,0,0,1-.68-.11.55.55,0,0,1-.11-.61.68.68,0,0,1,.68-.34c.2.12.26.26.42.34" transform="translate(-3.44 -2.39)" fill="#fff"/><path d="M57.94,31.15c.11.23-.13.29-.22.4a.58.58,0,0,1-.57-.06c-.2-.11-.11-.39-.09-.54.26-.49.77-.14.88.2" transform="translate(-3.44 -2.39)" fill="#fff"/><path d="M128.77,31.69c.11,0,.06.2,0,.26a2.15,2.15,0,0,1-2.3-.12,10.37,10.37,0,0,0-1.13-.62c.13-.38.64-.35,1-.43.81.11,1.47.88,2.38.91" transform="translate(-3.44 -2.39)" fill="#fff"/><path d="M59.31,31.44c0,.22-.12.31-.17.48s-.34.11-.49,0a.5.5,0,0,1-.19-.71.51.51,0,0,1,.85.18" transform="translate(-3.44 -2.39)" fill="#fff"/><path d="M61.81,31.61c.11.25-.06.48-.29.62s-.36,0-.54-.09c-.15-.19-.39-.42-.15-.65.27-.43.77-.2,1,.12" transform="translate(-3.44 -2.39)" fill="#fff"/><path d="M94.63,32.81c-.06.57-1-.08-.87.68a4.34,4.34,0,0,0,.57,1.61c.27.38.13,1,.11,1.44a2.5,2.5,0,0,1-1.09.91c-.8-.07-2,.41-2.37-.59a4.05,4.05,0,0,1-.46-1.36c.08,0,.2,0,.28-.13s-.22-.3-.2-.49c.92-.17-.37-1,.41-1,.65.68,1.7.46,2.27,1.19a2.23,2.23,0,0,0,.4.35c-.11-.68-.43-1.35-.54-2.09a1,1,0,0,1,.32-.95c.49-.38.89.17,1.17.46" transform="translate(-3.44 -2.39)" fill="#fff"/><path d="M64.3,32.64c.09.28-.14.45-.31.59s-.4-.17-.51-.31.11-.43.29-.57a.59.59,0,0,1,.53.29" transform="translate(-3.44 -2.39)" fill="#fff"/><path d="M81.82,32.92a4,4,0,0,1-.34,3.2c0,.23,0,.6-.26.57-.76-1-.2-2.54.11-3.66.06-.28.4-.39.49-.11" transform="translate(-3.44 -2.39)" fill="#fff"/><path d="M106.12,33.47a3.22,3.22,0,0,1,0,2.65l-.22.23a6.45,6.45,0,0,1-.66-2,6.56,6.56,0,0,0,.34-1.52c.4-.09.37.44.49.67" transform="translate(-3.44 -2.39)" fill="#fff"/><path d="M66.52,33.77c-.17.35-.66.44-1,.67a3.4,3.4,0,0,1-2.52.48,3.07,3.07,0,0,1,3.23-1.34c.06.11.2.05.26.19" transform="translate(-3.44 -2.39)" fill="#fff"/><path d="M54.85,34.8c1,.75,1.33,1.78,2,2.81.08.11.36.14.25.37s-.45-.17-.77-.12a3.15,3.15,0,0,1-1.73-2.94c0-.12.18-.12.29-.12" transform="translate(-3.44 -2.39)" fill="#fff"/><path d="M105,35.69c0,.29,0,.57-.26.66a.53.53,0,0,1-.66-.34c-.07-.2.09-.32.15-.46a.5.5,0,0,1,.77.14" transform="translate(-3.44 -2.39)" fill="#fff"/><path d="M117,37.21a12.94,12.94,0,0,1,.2-1.57,1.1,1.1,0,0,0,.11-.6c.68-.92,2.08-.63,3.15-.55a5.39,5.39,0,0,0,1.42.31,1,1,0,0,1,.71-.14c.92-.49.31-1.54.37-2.37l-.34-.86a3.23,3.23,0,0,1-.23-.57c-.17-.2-.28-.57-.45-.77a11.41,11.41,0,0,0-2.22-3,12.06,12.06,0,0,0-6-3.68c-2.25-.77-4.52.23-6.54.94a1.63,1.63,0,0,1-1.1-1.2,5.69,5.69,0,0,1,.53-3,10.63,10.63,0,0,1,.78-1.91,21.26,21.26,0,0,0,1.16-4.92A2.59,2.59,0,0,0,107,11.05a1.55,1.55,0,0,0-1.55.31A4.12,4.12,0,0,1,103.62,13c-.06.49.54.17.73.34.63.12,1.34-.08,1.85.32A4.82,4.82,0,0,1,105,16.63a23.23,23.23,0,0,0-2.59,4.45l-.1-.11.13,7c.91,1.5,2,3.22,3.72,3.79.91.74,2,1.62,3.27,1,.65-.2.7.71,1,1.08.34,1.06-.43,1.81-.48,2.78l-.74,1.57A20.87,20.87,0,0,1,106.32,43c-.43,0-.69.46-1.12.49-.22.32-.68.08-1,.2-.88.37-2.13.14-2.72,1a.51.51,0,0,0,.23.15c1.72,0,3.66.14,5.5.05a.72.72,0,0,0,.46-.54c-.26-.49.08-.92.31-1.29.14-.68.6-1.12.79-1.77.6-1.18,1.28-2.32,1.93-3.49l.88-1.43a9.6,9.6,0,0,1,.89-1.6A4.29,4.29,0,0,0,113,34c0-.29-.12-.4-.29-.6.19-.2.51-.14.76-.2a3.21,3.21,0,0,1,1.6,1.89l.25.73.12.35-.06.94.11.89a20.52,20.52,0,0,1-.25,4.14c-.49,1.67-2.39,1.5-3.75,1.86-.34.23-1,.12-1,.69a24.92,24.92,0,0,0,5.34.11c.27-.11.33-.37.48-.63s.42-.68.31-1.08c-.31-.4,0-1-.12-1.57a.86.86,0,0,0,0-.55c.23-.82.18-1.82.34-2.63Z" transform="translate(-3.44 -2.39)" fill="#fff"/><path d="M131,36.09c-.91,1.29-1.87,2.75-3.46,3.2-.11,0-.23.06-.29-.08,1-1,1.49-2.63,3-3a.94.94,0,0,1,.76-.11" transform="translate(-3.44 -2.39)" fill="#fff"/><path d="M53.46,37.49c-.14.12,0,.37-.28.4a.46.46,0,0,1-.6-.25A.5.5,0,0,1,53,37c.23.11.46.2.51.48" transform="translate(-3.44 -2.39)" fill="#fff"/><path d="M61.64,37.89c.08.26-.2.26-.34.32A3.09,3.09,0,0,1,58,37.38c0-.12,0-.23.11-.26,1.17.29,2.53.06,3.5.77" transform="translate(-3.44 -2.39)" fill="#fff"/><path d="M55,37.52a.72.72,0,0,1,.06.43.63.63,0,0,1-.71.26.85.85,0,0,1-.37-.38.7.7,0,0,1,.48-.54.92.92,0,0,1,.54.23" transform="translate(-3.44 -2.39)" fill="#fff"/><path d="M81.62,37.67c0,.25-.17.42-.34.54a.56.56,0,0,1-.6-.23.42.42,0,0,1,.2-.55c.25,0,.65,0,.74.24" transform="translate(-3.44 -2.39)" fill="#fff"/><path d="M132,37.78c.09.28-.16.43-.36.6a.61.61,0,0,1-.55-.09c0-.14-.19-.26-.14-.45a.63.63,0,0,1,.66-.35c.14.12.25.15.39.29" transform="translate(-3.44 -2.39)" fill="#fff"/><path d="M133.91,37.67c.17.25,0,.46-.12.65a.38.38,0,0,1-.51.17c-.17-.17-.39-.25-.43-.51s.26-.4.43-.49.4.18.63.18" transform="translate(-3.44 -2.39)" fill="#fff"/><path d="M52.27,38.49c0,.21-.15.32-.2.49s-.28.17-.45.12a.88.88,0,0,1-.43-.46.55.55,0,0,1,1.08-.15" transform="translate(-3.44 -2.39)" fill="#fff"/><path d="M112.05,38.49a.79.79,0,0,1,0,.37c-.17.24-.4.43-.69.29s-.37-.34-.28-.6a.57.57,0,0,1,.94-.06" transform="translate(-3.44 -2.39)" fill="#fff"/><path d="M56.84,38.92c-.05.21-.14.4-.4.43s-.34-.2-.47-.32,0-.51.21-.65a.52.52,0,0,1,.66.54" transform="translate(-3.44 -2.39)" fill="#fff"/><path d="M54.11,39a.59.59,0,0,1-.28.63.68.68,0,0,1-.77-.4.82.82,0,0,1,.51-.66c.26,0,.4.29.54.43" transform="translate(-3.44 -2.39)" fill="#fff"/><path d="M113.92,38.92a.57.57,0,0,1-.31.69c-.33.11-.63-.17-.77-.4.14-.23.18-.54.51-.6a.67.67,0,0,1,.57.31" transform="translate(-3.44 -2.39)" fill="#fff"/><path d="M55.45,39c.08.21-.09.29-.15.44s-.22.17-.39.11-.35-.2-.37-.4.17-.43.37-.54a.53.53,0,0,1,.54.39" transform="translate(-3.44 -2.39)" fill="#fff"/><path d="M130.46,39.26a.77.77,0,0,1-.47.46c-.23.06-.38-.14-.54-.23s-.09-.36,0-.51a.56.56,0,0,1,1,.28" transform="translate(-3.44 -2.39)" fill="#fff"/><path d="M132.63,39.38a.74.74,0,0,1-.68.49c-.26-.12-.55-.32-.34-.66.11-.11.17-.23.34-.26a.55.55,0,0,1,.68.43" transform="translate(-3.44 -2.39)" fill="#fff"/><path d="M119.14,39.58c.15.37-.2.48-.42.66a1.36,1.36,0,0,1-.54-.23.67.67,0,0,1,.4-.75.69.69,0,0,1,.56.32" transform="translate(-3.44 -2.39)" fill="#fff"/><path d="M111.34,39.93c.14,0,.08.25,0,.34s-.39.4-.65.23a.5.5,0,0,1-.28-.55.53.53,0,0,1,.88,0" transform="translate(-3.44 -2.39)" fill="#fff"/><path d="M112.92,40.12a.38.38,0,0,1-.22.46c-.19.2-.42,0-.62-.08a.48.48,0,0,1,0-.44.67.67,0,0,1,.37-.22c.2,0,.42,0,.5.28" transform="translate(-3.44 -2.39)" fill="#fff"/><path d="M64.76,40.15c.17.17,0,.37-.06.55a.57.57,0,0,1-.71.14c-.28-.11-.26-.49-.2-.72.17-.06.17-.25.4-.25a.94.94,0,0,1,.57.28" transform="translate(-3.44 -2.39)" fill="#fff"/><path d="M122.18,40.27c.06.28-.22.4-.42.46s-.51-.15-.66-.38c0-.17.18-.29.23-.43.4-.17.66.12.85.35" transform="translate(-3.44 -2.39)" fill="#fff"/><path d="M120.65,40.27c.11.28-.2.43-.32.57a.6.6,0,0,1-.62-.11c-.14-.09-.14-.26-.14-.44.17-.14.26-.31.46-.37a.72.72,0,0,1,.62.35" transform="translate(-3.44 -2.39)" fill="#fff"/><path d="M133.45,40.61c.06.4-.45.2-.65.31-1.19.72-2.73.17-3.87-.25.1-.38.52-.23.75-.38,1.21-.76,2.46.18,3.69.23Z" transform="translate(-3.44 -2.39)" fill="#fff"/><path d="M55.76,40.27l-.11.2a4.66,4.66,0,0,1-3.67.65L51.87,41a5.15,5.15,0,0,1,3.81-.77Z" transform="translate(-3.44 -2.39)" fill="#fff"/><path d="M125.08,40.47a.64.64,0,0,1-.28.54c-.29.08-.67,0-.74-.31s.14-.46.37-.55.54,0,.65.32" transform="translate(-3.44 -2.39)" fill="#fff"/><path d="M60.83,40.58c-.1.23,0,.46-.33.57a.6.6,0,0,1-.71-.37c-.09-.31.15-.4.28-.54.35-.18.6.08.76.34" transform="translate(-3.44 -2.39)" fill="#fff"/><path d="M58.83,40.73c.08.19-.09.31-.15.46a.54.54,0,0,1-.56.08c-.21-.18-.4-.38-.31-.69a1.29,1.29,0,0,1,.45-.31.64.64,0,0,1,.57.46" transform="translate(-3.44 -2.39)" fill="#fff"/><path d="M127.06,41.38a.58.58,0,0,1-.45.51.6.6,0,0,1-.54-.28.46.46,0,0,1,.11-.54c.06-.09.26-.09.38-.15a.61.61,0,0,1,.5.46" transform="translate(-3.44 -2.39)" fill="#fff"/><path d="M56.72,41.06c.09.24-.11.32-.14.49A4.19,4.19,0,0,1,56,42.78c-.55.66-1.31.66-2.07.86l-.12-.23A7.34,7.34,0,0,1,56.64,41Z" transform="translate(-3.44 -2.39)" fill="#fff"/><path d="M125.65,41.7c0,.34-.23.39-.42.54a.66.66,0,0,1-.58-.35c-.09-.31.2-.42.37-.57a.6.6,0,0,1,.63.38" transform="translate(-3.44 -2.39)" fill="#fff"/><path d="M60,41.7c0,.06,0,.11.08.14,0,.31-.25.4-.42.54a.79.79,0,0,1-.63-.29.47.47,0,0,1,.29-.65c.25,0,.59,0,.68.26" transform="translate(-3.44 -2.39)" fill="#fff"/><path d="M130.87,42.55c.29,0,.34-.37.65-.42a.7.7,0,0,1,.68.31c.12.34-.15.52-.37.66s-.62-.18-.6.19a.94.94,0,0,1,.41.58c-.06.11-.25.08-.35,0a3.61,3.61,0,0,1-2-1.77c-.11-.27-.65-.46-.34-.69a2.64,2.64,0,0,1,2,1.11" transform="translate(-3.44 -2.39)" fill="#fff"/><path d="M133.59,41.67a.44.44,0,0,1,0,.54c-.15.29-.57.17-.82.14s-.3-.28-.24-.51a1,1,0,0,1,.43-.37.74.74,0,0,1,.65.2" transform="translate(-3.44 -2.39)" fill="#fff"/><path d="M123.29,43.22a4.15,4.15,0,0,1,.63,1.14c-.06.08-.21,0-.26,0-1-.54-2.21-1.14-2.58-2.28-.09-.12-.32-.26-.28-.46a2.61,2.61,0,0,1,2,.8,3.24,3.24,0,0,1,.54.75" transform="translate(-3.44 -2.39)" fill="#fff"/><path d="M58.4,42.13c.11.25-.11.45-.26.57a.67.67,0,0,1-.65-.23c-.2-.32.17-.57.4-.69s.37.21.51.35" transform="translate(-3.44 -2.39)" fill="#fff"/><path d="M126.84,42.78c0,.18-.21.29-.28.4-.24,0-.46.11-.65-.08s-.21-.37,0-.51c.31-.41.76-.1,1,.19" transform="translate(-3.44 -2.39)" fill="#fff"/><path d="M133.91,43.18a.69.69,0,0,1-.4.72.74.74,0,0,1-.68-.26c-.14-.17,0-.35,0-.54a.68.68,0,0,1,.74-.2,1.62,1.62,0,0,1,.34.28" transform="translate(-3.44 -2.39)" fill="#fff"/><path d="M114.26,47.13c0,.34-.62.25-.88.51a6,6,0,0,1-3,.43V47.9a4.21,4.21,0,0,1,3.86-.77" transform="translate(-3.44 -2.39)" fill="#fff"/><path d="M72.85,48.35a.54.54,0,0,1-.43.49.55.55,0,0,1-.48-.28c-.12-.34.17-.49.37-.63a.66.66,0,0,1,.54.42" transform="translate(-3.44 -2.39)" fill="#fff"/><path d="M113.79,48.67a.82.82,0,0,1-.44.66.77.77,0,0,1-.62-.2c-.14-.11-.06-.32-.08-.46a.62.62,0,0,1,1.14,0" transform="translate(-3.44 -2.39)" fill="#fff"/><path d="M119.42,48.79a4.55,4.55,0,0,1-2.43,1l-1.53,0-.15-.11c.94-1.14,2.64-1.14,4.11-1Z" transform="translate(-3.44 -2.39)" fill="#fff"/><path d="M65.07,49.47a.51.51,0,0,1-.37.54.5.5,0,0,1-.59-.26.51.51,0,0,1,.22-.65c.31-.2.63.15.74.37" transform="translate(-3.44 -2.39)" fill="#fff"/><path d="M66.49,49.75c.08.16-.06.23-.11.38a.48.48,0,0,1-.55,0,.36.36,0,0,1-.16-.49c.08-.17.25-.14.34-.25a.81.81,0,0,1,.48.36" transform="translate(-3.44 -2.39)" fill="#fff"/><path d="M55.61,52.64c-.27.34-.73-.08-1-.26-1-.56-1-1.68-2-2.33.11-.35.37,0,.57,0a3.31,3.31,0,0,0,.59.32c1,.54,1.19,1.46,1.84,2.31" transform="translate(-3.44 -2.39)" fill="#fff"/><path d="M138.37,41.55a2.3,2.3,0,0,0-2.14-1.17,2,2,0,0,0-1.59,1.17,1.47,1.47,0,0,0,.54,1.58.44.44,0,0,0,.57-.15c.14-.37-.26-.37-.31-.65a1,1,0,0,1,.31-1c.29-.28.76-.14,1.1-.14a2,2,0,0,1,.86.83,2.33,2.33,0,0,1,0,1.52A2.54,2.54,0,0,1,136,45c-2.36.34-28.21.23-28.21.23-3,.28-6.51-.58-9.12,1a4.56,4.56,0,0,0-2.1,3.06,21.48,21.48,0,0,0-2.22,2.26l-.08-.08c.14-.69.46-1.29.6-2a11.09,11.09,0,0,0,.74-2,15.72,15.72,0,0,1,3.77-4.75c.71-.94,2-.76,3-.76a7.49,7.49,0,0,0,3.95.56.24.24,0,0,0,.08-.2c-.4-.36-1.05-.52-1.51-.88-1.13-.55-2.21.17-3.41.08,0,0-.1-.08-.07-.16a16.33,16.33,0,0,1,3.51-1.9,24.33,24.33,0,0,1,3.1-1.22c.42,0,.82-.38,1.22-.12l1.5-.4c.06,0,.12.11.23.08,1.27-.42,2.9,0,4.34,0l.2.17,1.36.34c.51.06.74.66,1.28.69.29-.4-.31-.57-.45-.83a3.12,3.12,0,0,1,1.9.29l-.28.31c-.18.32.08.54.33.66s.35-.09.49-.15c.37-.25,0-.51.08-.74a27.06,27.06,0,0,1,6,1.72,4.85,4.85,0,0,0,1.65.54,7.58,7.58,0,0,0-2.16-1.14c-.49-.29-1.17-.32-1.53-.72.08-.14.28-.08.36-.2a4.16,4.16,0,0,0,2.47-1.6c.06-.17.38-.11.34-.34-.25-.29-.68.08-1,.06-1.2.22-1.71,1.63-2.9,1.88-1.45-.34-2.92-.68-4.37-1a9.39,9.39,0,0,1-2.13-.46l-1.59-.15h-2.89c0-.05-.12-.08-.09-.16,1-.27,1.9-.87,2.92-1.13L123,32.29a17.81,17.81,0,0,0,2.16-2.35.52.52,0,0,0-.32-.54.46.46,0,0,0-.56.12c-.35.25,0,.57,0,.88a4.89,4.89,0,0,1-1.31,1.12c-.11,0-7.83,3.52-7.83,3.52a20.42,20.42,0,0,1-3.47,1.28l-1.64.26a1.13,1.13,0,0,1-.72.66,6.44,6.44,0,0,1-1.3.37c-3.69,1.42-7.52,2.94-10.44,5.86a3.25,3.25,0,0,0,.28-1.2A2.41,2.41,0,0,0,97.49,41c-.07-.16-.28-.62-.22-.78l-.4.27a3.89,3.89,0,0,0-.23,2.42c.08.52.51,1.12.11,1.58a26.07,26.07,0,0,0-3,5.55c-.34-.07-.51-.38-.66-.69a9.45,9.45,0,0,0,2-4.17c.2-.14.06-.52.25-.69,0-.46.27-.91,0-1.28.18-.63-.83-1.21-.19-1.61l-.54.25c-1.21,1.61.64,4-.75,5.56v.11a4.9,4.9,0,0,1-1.13,1.37c-.69-.29-.94-1.06-1.34-1.63a2.55,2.55,0,0,1-.25-2.66c.25-.82-.18-1.54-.26-2.28l-.29-.18a3.31,3.31,0,0,0-.39,3.35c.28.51.31,1.23.73,1.65a9.37,9.37,0,0,0,1.23,2.12c.11.28-.17.35-.32.48-.31-.2-.25-.64-.53-.85a20.8,20.8,0,0,0-3.64-5.23c0-.26-.31-.49-.17-.77a2.08,2.08,0,0,0,.37-2.17c0-.15-.23-.32-.2-.46l-.42-.34c0,1-.6,1.88-.32,2.94v.05a54.35,54.35,0,0,0-9.44-5.7l-.27.72a19.31,19.31,0,0,1,3,1.55A20.45,20.45,0,0,1,83.12,41a19.54,19.54,0,0,1,8.15,9.63c0,.32.31.66.11,1a15.84,15.84,0,0,0-2.15-2.18,4.16,4.16,0,0,0-2.17-3.17c-.41-.63-1.33-.69-2-.88l-10.34-.06c-8.4-.12-16.06.25-24.41.11-1.16-.11-2.58-.51-2.92-1.75a1.93,1.93,0,0,1,0-1.56,1.73,1.73,0,0,1,1.45-.78,1.51,1.51,0,0,1,1,.8c0,.38-.31.72-.45,1,0,.11.14.35.34.26a1.35,1.35,0,0,0,.74-.91c0-.2.1-.49-.09-.63A1.86,1.86,0,0,0,49,40.73a2.23,2.23,0,0,0-2.39,3.06,3.81,3.81,0,0,0,3.07,2.28l27.62.11c2.69.15,5.73-.31,8.45.23A3.3,3.3,0,0,1,88,48.58c0,.06-.12,0-.2,0A12.33,12.33,0,0,0,79.77,47a9.59,9.59,0,0,0-3.17.66,1.62,1.62,0,0,1-1.4-.47c-1-.91-2.81-.85-4.11-.51,0,.09,0,.17,0,.21,1.4-.12,2.22,1.08,3.47,1.22.28.06.51-.25.77,0a25.1,25.1,0,0,1-4,1.78c-.42-.09-.64-.49-1-.71-.54-.61-1.54-.35-2.27-.41-.27.06-.49-.12-.66,0a2.42,2.42,0,0,0,1.22.94c.72.32,1.54,0,2.19.41a3.17,3.17,0,0,1-.59.39c-1.35.52-2.45,1.72-3.92,1.63a5,5,0,0,1-4.2-1.37A2.88,2.88,0,0,0,59.31,49c-.09.07-.21.07-.17.21.62.37,1.1,1.1,1.73,1.54.4.48,1.16,0,1.53.55a5.21,5.21,0,0,0,1.85.79,8.34,8.34,0,0,0,1.47.4l-.19.11a24.19,24.19,0,0,1-8.47.83c-.85,0-1.67-.28-2.52-.26a1.53,1.53,0,0,0,.68.41,1.73,1.73,0,0,1-.77.22,5.32,5.32,0,0,0-1.07.29,2.89,2.89,0,0,0-1.23.29,5.77,5.77,0,0,1-1.61,1.31c0,.12,0,.29.11.29.54-.23,1.22-.06,1.76-.29.93-.09,1.48-1.11,2.21-1.55a3.81,3.81,0,0,1,2.9-.34c.57.15-.06.37.11.75.23.2.42.42.74.34a.46.46,0,0,1,.2-.14.65.65,0,0,0,0-.71c.39-.27.93,0,1.36-.15,1.08,0,2.16-.26,3.2-.28.18,0,.37-.21.55,0-.08.22-.37.25-.26.56s.34.38.57.44c.28-.12.54-.32.43-.69-.06-.2-.29-.23-.43-.31.6-.29,1.28-.38,1.87-.66a6.26,6.26,0,0,0,1.2-.4c.36,0,.68-.37,1-.23a5.36,5.36,0,0,1-.59,1.37c-.45,1.52-.79,3.52,0,5,.09,0,.11,0,.17-.06a6.87,6.87,0,0,1,.25-4.69c.41-2.42,2.9-3.14,4.69-4.06l.08.11c-.47,1.26-1.18,2.47-1.08,4,.07.25-.1.52,0,.68a3,3,0,0,0,1.06-1.31c.2-1.28-.54-2.89.77-3.83,2.32-.92,4.51-2.12,7.2-2.14.09.09.29-.06.32.11-.57.63-1.4,1.23-1.65,2-.91,1.26-.88,3.4-.49,5,.26.88-.51,1.37-.87,2.06-.17.24-.23.65-.39.93l.55.06a3,3,0,0,0,1-1.88.81.81,0,0,0,.54.58c.2-.32-.16-.55-.2-.87.46-.25.65.32,1,.43a6.83,6.83,0,0,0,1.72.4l.2-.2c-.62-1-1.87-1.14-2.95-1.2a5.83,5.83,0,0,1-.51-3.26,5.17,5.17,0,0,1,.57-1.77,4.47,4.47,0,0,1,.79-1.09,4,4,0,0,1,1.8-1h.08a.17.17,0,0,0,0,.09c-.76.6-.84,1.42-1.3,2.18a2.37,2.37,0,0,0-.25,2.48c.16.37.08.94.48,1.2a6.13,6.13,0,0,0,.59-1.75c-.08-.94-.65-1.83-.11-2.73a2.32,2.32,0,0,1,1.53-1.27c1.57-.14,2.93.66,4.29,1.27.28.19.77.36.82.76a2.32,2.32,0,0,1-3.63,1.89A2,2,0,0,1,84.14,50a1.22,1.22,0,0,1,1.26-.46c.28.15.53.43.9.27a.38.38,0,0,0,.12-.46c-.31-.17-.43-.6-.86-.66A1.81,1.81,0,0,0,84,49a2,2,0,0,0-.65,2,2.43,2.43,0,0,0,1.76,1.82,3.27,3.27,0,0,0,3.49-1.2,3.82,3.82,0,0,0,.63-1.22,7.38,7.38,0,0,1,2.92,3.76,6.37,6.37,0,0,1,0,1.44l1,.08a.93.93,0,0,1,.09-.69,8.65,8.65,0,0,1,2.92-4.68c.49-.28.36.37.49.57a3.77,3.77,0,0,0,2.46,2.17,3.13,3.13,0,0,0,3.07-1c.37-.68.82-1.68.2-2.4a2,2,0,0,0-1.57-.74,1.91,1.91,0,0,0-1.55,1c0,.24,0,.5.16.61s.34,0,.44-.15c.05-.43.42-.62.76-.85a.91.91,0,0,1,.91.16,1.58,1.58,0,0,1,.4,1.13,1.69,1.69,0,0,1-1,1.33A2.86,2.86,0,0,1,98.28,52a6,6,0,0,1-.79-1.26,2,2,0,0,1,0-1.31A9.46,9.46,0,0,1,101.55,48a2.84,2.84,0,0,1,1.5.94c1.3,1.34-.28,3.26.62,4.75.35-.06.35-.51.49-.81.42-1-.11-2.14-.37-3.14A5.75,5.75,0,0,0,102.71,48a.68.68,0,0,1,.34-.06,6.48,6.48,0,0,1,1.72,1.48,7.68,7.68,0,0,1,1.12,4.69c-.23.85-1.14,1.26-1.84,1.57a2.53,2.53,0,0,0-.77.92c.34.2.82,0,1.16-.14.54-.21.85-.89,1.22-1.2.06,0,0,.11.06.16,0,.32-.14.75.14.83a11,11,0,0,0,.26-1.46,2.93,2.93,0,0,1,.53,1.44c.26.51.69,1.2,1.37,1.28.17-.25,0-.51-.09-.74-.08-.72-.68-1.09-1.07-1.6-1-1.38-.54-3.52-1.31-5.06A6,6,0,0,0,104,48l.11-.12a17.16,17.16,0,0,1,3.83.68c1.56.78,3.83.61,4.57,2.64a7.44,7.44,0,0,0,1.62,3.08l.09,0a1.17,1.17,0,0,0,0-1.06c-.17-1.43-1.43-1.77-2.08-3l.08-.12a20.83,20.83,0,0,1,2.08.66,6.1,6.1,0,0,1,4.14,5.17,11.35,11.35,0,0,1-1,4.89c-.09.23-.49.49-.23.68.31-.22.36-.6.53-.86a7.93,7.93,0,0,0,.94-5.74c0-.37-.45-.65-.26-1a.85.85,0,0,0,.49.26c.17-.12.43-.12.53-.32s.15-.37,0-.51-.53-.25-.81-.2a1.3,1.3,0,0,0-.34.63,6.09,6.09,0,0,0-1-1.52l.06-.08c1.28.43,2.44,1.06,3.75,1.4a1.84,1.84,0,0,0,1,.31,27,27,0,0,0,3.49.89c.86-.09,1.56.32,2.41.12v-.06l0,0c-.31-.39-1,0-1.36-.31a21.2,21.2,0,0,1-5.6-1.4c0-.08.14-.05.23-.05a.76.76,0,0,0,.45-.72.56.56,0,0,0-1.07.17.75.75,0,0,0,.42.55c0,.05-.17,0-.25,0-.89-.4-1.74-.77-2.59-1.17-.31-.06-.57-.31-.88-.37-.65-.31-1.3-.63-2-.89a46.21,46.21,0,0,0-5.76-2.14l-1.22-.34-2.13-.57c-2.41-.6-5.65-.66-7.75.65-.34-.11-.53.43-.71.09.6-1.57,2.34-2.09,3.89-2.15,11.39-.11,22.06-.2,33.26-.36a3.59,3.59,0,0,0,3.27-1.64,2.87,2.87,0,0,0,.21-2.63M93.23,52.1a2.43,2.43,0,0,0-.31,1l-.11.06c.08-.44-.35-.69-.24-1.14-.22-.35-.22-.78-.42-1.14s.22-.66.42-1c.4.16.54.53.83.88s-.2.85-.17,1.31" transform="translate(-3.44 -2.39)" fill="#fff"/><path d="M124,50.3c0,.09.17.12.1.26a5.88,5.88,0,0,1-3.8,1.2.71.71,0,0,1-.36.08c-.09-.05-.12-.14,0-.2A4.33,4.33,0,0,1,124,50.3" transform="translate(-3.44 -2.39)" fill="#fff"/><path d="M119.46,50.76c.11.4-.14.63-.46.77a.8.8,0,0,1-.62-.45c-.08-.24.11-.35.2-.49a.54.54,0,0,1,.88.17" transform="translate(-3.44 -2.39)" fill="#fff"/><path d="M65.49,50.82a.58.58,0,0,1-.13.6.59.59,0,0,1-.52.14c-.2,0-.31-.26-.36-.43a.61.61,0,0,1,.36-.54c.23,0,.48,0,.65.23" transform="translate(-3.44 -2.39)" fill="#fff"/><path d="M60.42,52.67v.2a2.23,2.23,0,0,1-1.85-.42A3.65,3.65,0,0,0,57.06,51c0-.09-.17-.2,0-.26,1.43,0,2.28,1.14,3.36,1.91" transform="translate(-3.44 -2.39)" fill="#fff"/><path d="M128.35,50.79c-.66,1-1.23,2.17-2.4,2.59-.19,0-.36.29-.54.09a5.31,5.31,0,0,1,2.53-2.71,1,1,0,0,1,.41,0" transform="translate(-3.44 -2.39)" fill="#fff"/><path d="M67.14,51.13c0,.32-.2.38-.39.54s-.35-.14-.49-.31.14-.4.28-.54a.58.58,0,0,1,.6.31" transform="translate(-3.44 -2.39)" fill="#fff"/><path d="M131.92,51.3c-.26.37-.14.91-.39,1.32-.58.65-1.07,1.39-2,1.54-.14-.29.2-.57.34-.83a4.12,4.12,0,0,1,1.88-2.2Z" transform="translate(-3.44 -2.39)" fill="#fff"/><path d="M51.62,51.56a.58.58,0,0,1,0,.63.68.68,0,0,1-.66.11.53.53,0,0,1-.23-.68c.18-.26.69-.4.89-.06" transform="translate(-3.44 -2.39)" fill="#fff"/><path d="M50,51.9c0,.15.11.26.08.4a.61.61,0,0,1-.4.34.58.58,0,0,1-.65-.37.56.56,0,0,1,.29-.6.59.59,0,0,1,.68.23" transform="translate(-3.44 -2.39)" fill="#fff"/><path d="M53.34,52.07c.07.23.12.63-.22.69s-.63-.12-.85-.35a.66.66,0,0,1,.34-.57.79.79,0,0,1,.73.23" transform="translate(-3.44 -2.39)" fill="#fff"/><path d="M58,52.45c0,.19,0,.48-.19.53s-.4.09-.55.07c0-.18-.37-.33-.2-.52a1.16,1.16,0,0,1,.4-.32c.17.09.43,0,.54.24" transform="translate(-3.44 -2.39)" fill="#fff"/><path d="M134.64,52.64c-.08.2-.19.46-.42.46s-.51-.05-.65-.31.14-.49.36-.58.66.12.71.43" transform="translate(-3.44 -2.39)" fill="#fff"/><path d="M129.45,52.79c0,.23-.23.4-.34.48a.68.68,0,0,1-.88-.43.71.71,0,0,1,.48-.51.74.74,0,0,1,.74.46" transform="translate(-3.44 -2.39)" fill="#fff"/><path d="M133,52.72a.57.57,0,0,1-.26.49.65.65,0,0,1-.68-.11c-.25-.23-.06-.43.11-.6s.75-.12.83.22" transform="translate(-3.44 -2.39)" fill="#fff"/><path d="M50.88,53.21a.61.61,0,0,1-.34.72.66.66,0,0,1-.63-.4.54.54,0,0,1,.28-.6.67.67,0,0,1,.69.28" transform="translate(-3.44 -2.39)" fill="#fff"/><path d="M128,53.53a.64.64,0,0,1-.4.75c-.23,0-.37-.07-.54-.2s-.25-.46,0-.61a.56.56,0,0,1,1,.06" transform="translate(-3.44 -2.39)" fill="#fff"/><path d="M66.15,53.84c.11.32-.23.37-.32.55s-.34.09-.43,0-.31-.35-.22-.6.2-.23.37-.29.43.2.6.37" transform="translate(-3.44 -2.39)" fill="#fff"/><path d="M134.13,54.05c.05.2-.11.28-.14.43a.79.79,0,0,1-.65.11c-.26-.15-.26-.38-.26-.63.18-.12.2-.26.4-.31a.64.64,0,0,1,.65.4" transform="translate(-3.44 -2.39)" fill="#fff"/><path d="M132.38,54.13c.11.35-.2.51-.43.6s-.29-.06-.31.12a7.29,7.29,0,0,1,1.76,1.51v.23a3.83,3.83,0,0,1-2.81-1.09c-.2-.14-.55-.14-.77-.34.37-.37,1.05-.23,1.57-.26.36-.4-.44-.69,0-1,.18,0,.29-.2.52-.15a1.13,1.13,0,0,1,.43.41" transform="translate(-3.44 -2.39)" fill="#fff"/><path d="M120.76,54.16c.06.14-.11.32-.13.46a.6.6,0,0,1-.63.11c-.15-.2-.37-.37-.29-.65.23-.43,1-.35,1.05.08" transform="translate(-3.44 -2.39)" fill="#fff"/><path d="M57.29,55.16c-.08.26-.2.43-.48.46a.6.6,0,0,1-.52-.34c0-.2.12-.32.15-.47.31-.25.88-.08.85.35" transform="translate(-3.44 -2.39)" fill="#fff"/><path d="M59.59,54.79c0,.4-.43.63-.57,1a2.87,2.87,0,0,1-2.27,1.89c-.11-.25.37-.57.49-.82a5.83,5.83,0,0,1,2.18-2.09Z" transform="translate(-3.44 -2.39)" fill="#fff"/><path d="M120.08,55.19c0,.31-.25.54-.48.66s-.46-.12-.6-.23-.08-.46,0-.69c.34-.34.82-.06,1,.26" transform="translate(-3.44 -2.39)" fill="#fff"/><path d="M121.84,55.39a.72.72,0,0,1-.51.63c0-.09-.2,0-.28-.06a.61.61,0,0,1-.37-.52c.14-.14.2-.36.4-.39s.67,0,.76.34" transform="translate(-3.44 -2.39)" fill="#fff"/><path d="M64,55.36a.61.61,0,0,1-.42.6.55.55,0,0,1-.54-.34c-.06-.26.19-.43.34-.57.34-.12.42.14.62.31" transform="translate(-3.44 -2.39)" fill="#fff"/><path d="M66,55.47a.69.69,0,0,1-.55.49c-.19-.06-.41-.11-.5-.34s.2-.43.4-.57.6.11.65.42" transform="translate(-3.44 -2.39)" fill="#fff"/><path d="M127.94,57.47c.15.12.41.26.34.46-.45.2-.81-.31-1.24-.4a5.79,5.79,0,0,1-1.48-2.29c.25-.26.54.06.76.15a5.37,5.37,0,0,1,1.62,2.08" transform="translate(-3.44 -2.39)" fill="#fff"/><path d="M129,55.47a.68.68,0,0,1-.06.63c-.16.28-.53.23-.79.17s-.39-.39-.22-.65.34-.29.54-.38.34.15.53.23" transform="translate(-3.44 -2.39)" fill="#fff"/><path d="M68.56,56.21c0,.23.09.58-.2.72a.55.55,0,0,1-.68-.34c-.14-.34.18-.4.34-.57s.37,0,.54.19" transform="translate(-3.44 -2.39)" fill="#fff"/><path d="M121.75,58.08a4,4,0,0,1,.74,2c-.08.2.15.4,0,.54h-.11c-1.27-.91-1.55-2.2-2-3.48a.22.22,0,0,1-.12-.28c.29-.26.49.25.77.34Z" transform="translate(-3.44 -2.39)" fill="#fff"/><path d="M72.25,57.11s0,0,0,0a3.78,3.78,0,0,1-4,.51.21.21,0,0,1,.14-.25,5.78,5.78,0,0,1,2.5-.54Z" transform="translate(-3.44 -2.39)" fill="#fff"/><path d="M65.78,57.25c-1,.6-1.84,1.77-3,2-.23.09-.38.41-.66.23A4.17,4.17,0,0,1,65.78,57Z" transform="translate(-3.44 -2.39)" fill="#fff"/><path d="M120.08,58.53c.08.23,0,.55-.23.61a.41.41,0,0,1-.53,0c-.26-.12-.26-.38-.26-.57s.29-.24.43-.32.45,0,.59.28" transform="translate(-3.44 -2.39)" fill="#fff"/><path d="M117.72,58.68a1.6,1.6,0,0,1-1,.74,4.41,4.41,0,0,1-2.69-.34c0-.23.31-.14.45-.29a6.13,6.13,0,0,1,2.89-.14c.09-.06.3-.08.37,0" transform="translate(-3.44 -2.39)" fill="#fff"/><path d="M65.78,59.51c-.09.11-.11.37-.34.45a.6.6,0,0,1-.57-.12c-.05-.17-.25-.31-.11-.51s.28-.25.45-.31a.61.61,0,0,1,.57.49" transform="translate(-3.44 -2.39)" fill="#fff"/><path d="M67.45,59.76c-.08.17-.16.43-.39.54a.58.58,0,0,1-.57-.2.68.68,0,0,1-.09-.57c.06-.14.26-.17.4-.26.29,0,.54.26.65.49" transform="translate(-3.44 -2.39)" fill="#fff"/><path d="M119.55,60a.81.81,0,0,1-.2.55.48.48,0,0,1-.63.11c-.2,0-.26-.25-.34-.4s.11-.37.2-.57a.63.63,0,0,1,1,.31" transform="translate(-3.44 -2.39)" fill="#fff"/><path d="M120.8,60c0,.14.11.29,0,.4s-.29.51-.62.37c-.17.06-.26-.17-.35-.22a.55.55,0,0,1,.35-.78c.25-.08.42.15.57.23" transform="translate(-3.44 -2.39)" fill="#fff"/><path d="M66.43,60.82a.76.76,0,0,1-.28.77c-.32.06-.71.06-.83-.31a.77.77,0,0,1,.35-.83.68.68,0,0,1,.76.37" transform="translate(-3.44 -2.39)" fill="#fff"/><path d="M68.05,60.7a2.63,2.63,0,0,1-1,2.23c-.46.09-.9.52-1.36.23V63a29.08,29.08,0,0,1,2.38-2.32" transform="translate(-3.44 -2.39)" fill="#fff"/><path d="M115.09,61.37c.11.17-.09.31-.18.45s-.48.12-.67,0a.44.44,0,0,1-.15-.57.58.58,0,0,1,.37-.32.79.79,0,0,1,.63.41" transform="translate(-3.44 -2.39)" fill="#fff"/><path d="M70.89,62.68c.39.65.17,1.55.39,2.26-.47,0-.67-.49-1-.78-.62-.85-.54-2-.82-3a.15.15,0,0,1,.2-.06,7.66,7.66,0,0,1,1.08,1.2c-.06.2.17.2.14.38" transform="translate(-3.44 -2.39)" fill="#fff"/><path d="M116.5,61.59c0,.23-.25.29-.39.43a1.09,1.09,0,0,1-.54-.26c-.09-.29.14-.37.29-.51a.47.47,0,0,1,.64.34" transform="translate(-3.44 -2.39)" fill="#fff"/><path d="M119.88,64.13c0,.1,0,.26-.17.21h-.11c-.82-.74-1.65-1.58-1.54-2.72l.18,0a3.59,3.59,0,0,1,1.64,2.54" transform="translate(-3.44 -2.39)" fill="#fff"/><path d="M117.76,63.22a.63.63,0,0,1-.26.54c-.31.09-.79.07-.85-.37,0-.28.28-.43.42-.57a.58.58,0,0,1,.69.4" transform="translate(-3.44 -2.39)" fill="#fff"/><path d="M115.88,63.83c-.4,1-1.47,1.59-2.21,2.39-.15-.09-.09-.31-.06-.42a3.94,3.94,0,0,1,2.18-2.58c.46.06,0,.37.09.61" transform="translate(-3.44 -2.39)" fill="#fff"/><path d="M118,64.68c0,.26-.26.37-.41.51a.78.78,0,0,1-.61-.31c0-.28.2-.37.36-.52a.6.6,0,0,1,.66.32" transform="translate(-3.44 -2.39)" fill="#fff"/><path d="M96.89,12.78a.71.71,0,0,1,0,1.41H88.47a.71.71,0,1,1,0-1.41Zm-6,1.23c.82,0,0-1-.4-1h-.82c-.82,0,0,1,.39,1Zm3.44,0c.83,0,.05-1-.39-1h-.82c-.83,0,0,1,.39,1Zm2.54-1h-.31c-.82,0-.12,1,.33,1s.58-1,0-1" transform="translate(-3.44 -2.39)" fill="#fff"/><path d="M96.15,22.44l1.61.62,1.58-.62-.63,2.36,1.26-.26L99.54,26l.43,1.37-1.11-.3.48,2.55L97.76,29l-1.61.61.66-2.55-1.29.36L95.86,26l-.34-1.38,1.23.2Zm2.38,4.26c.35,0,.39-.49.39-.92,0-1-.78,0-1.17-.92-.29.77-1.08.06-1.08.89,0,.57,0,.95.57.95ZM97,25.83c0,.37.5.12.87.12s.86.25.86-.12c0-.53-.49-.35-.86-.35s-.87-.18-.87.35" transform="translate(-3.44 -2.39)" fill="#fff"/><polygon points="88.95 23.53 88.95 23.23 88.68 23.18 88.89 22.96 88.75 22.71 89.03 22.75 89.2 22.45 89.36 22.74 89.64 22.71 89.52 22.96 89.72 23.18 89.45 23.23 89.45 23.53 89.2 23.34 88.95 23.53" fill="#fff"/><polygon points="87.7 25.13 87.7 24.84 87.43 24.78 87.64 24.56 87.51 24.32 87.78 24.35 87.95 24.06 88.11 24.34 88.39 24.32 88.26 24.56 88.48 24.78 88.2 24.84 88.2 25.13 87.95 24.94 87.7 25.13" fill="#fff"/><polygon points="89.82 24.93 89.82 24.63 89.55 24.58 89.76 24.36 89.63 24.12 89.91 24.14 90.08 23.85 90.24 24.14 90.51 24.12 90.38 24.36 90.59 24.58 90.33 24.63 90.33 24.93 90.08 24.74 89.82 24.93" fill="#fff"/><polygon points="90.06 26.13 90.06 25.96 89.91 25.93 90.03 25.81 89.96 25.67 90.11 25.68 90.21 25.52 90.3 25.68 90.47 25.67 90.39 25.81 90.5 25.93 90.35 25.96 90.35 26.13 90.21 26.02 90.06 26.13" fill="#fff"/><polygon points="88.1 27.5 88.1 26.99 87.64 26.9 88 26.52 87.78 26.11 88.25 26.16 88.53 25.66 88.81 26.15 89.3 26.11 89.07 26.52 89.43 26.9 88.97 26.99 88.97 27.5 88.53 27.18 88.1 27.5" fill="#fff"/><polygon points="89.1 0.53 90.1 3 92.63 2.25 91.35 4.57 93.5 6.1 90.9 6.53 91.06 9.19 89.1 7.41 87.14 9.19 87.3 6.53 84.69 6.1 86.85 4.57 85.57 2.25 88.1 3 89.1 0.53" fill="#fff"/><path d="M83.38,58.06c-.3.11-.42.2-.34.51l.35,1.5a1.32,1.32,0,0,1-.1,1,1.75,1.75,0,0,1-1,.61,2.08,2.08,0,0,1-1.21,0,.87.87,0,0,1-.58-.76l-.38-1.58c-.1-.4-.25-.37-.57-.33l0-.11,1.91-.46,0,.12c-.37.1-.55.15-.45.56l.38,1.58c.06.27.22.93,1,.73a.92.92,0,0,0,.76-1.27l-.35-1.44c-.06-.29-.17-.43-.66-.33l0-.12,1.25-.3Z" transform="translate(-3.44 -2.39)" fill="#fff"/><path d="M86.2,58.37a1.23,1.23,0,0,0-1.3-.63c-.29.07-.58.28-.5.59s.18.34.7.43l.91.15a1,1,0,0,1,.8.75c.1.41-.13,1.06-1.17,1.3a6,6,0,0,1-1,0c-.12,0-.13.12-.13.2l-.17,0-.26-1.17.16,0a1.22,1.22,0,0,0,1.39.76c.67-.16.6-.63.59-.69-.07-.32-.36-.38-.76-.44L85,59.6c-1.05-.17-1.14-.58-1.19-.79s0-1,1.05-1.22a5.61,5.61,0,0,1,.92,0c.12,0,.13-.1.14-.2l.17,0,.23,1Z" transform="translate(-3.44 -2.39)" fill="#fff"/><path d="M90,60.25l-2.06.19v-.11c.41-.07.55-.1.51-.51l-.23-2.54c-.41.06-1,.13-1,.92h-.18l-.06-1,3.45-.33.11,1h-.17c-.19-.76-.78-.72-1.18-.71l.24,2.55c0,.41.18.41.6.4Z" transform="translate(-3.44 -2.39)" fill="#fff"/><path d="M94.76,60.25l-1.19,0-1.16-1.54h-.17v1c0,.39.11.41.49.45v.13l-2,0v-.12c.39,0,.51,0,.52-.44l0-2.15c0-.41-.18-.43-.5-.46v-.12l1.86,0c.41,0,1.63.07,1.62.89,0,.59-.61.74-.92.81L94.53,60a.36.36,0,0,0,.23.1Zm-2.51-1.73c.76,0,1.07-.09,1.08-.72a.61.61,0,0,0-.69-.71c-.31,0-.33,0-.36.19Z" transform="translate(-3.44 -2.39)" fill="#fff"/><path d="M98.56,60.73,96.7,60.5l0-.12c.35,0,.46,0,.47-.13a2.32,2.32,0,0,0-.18-.67l-1.29-.17a2.8,2.8,0,0,0-.33.59c0,.19.25.23.45.27l0,.12-1.17-.14,0-.12c.31,0,.42-.16.64-.5l1.59-2.48.17,0,1,2.69c.2.55.27.73.54.76ZM97,59.38l-.44-1.24-.68,1.1Z" transform="translate(-3.44 -2.39)" fill="#fff"/><path d="M101.93,61.42l-3.29-.61,0-.11c.32,0,.49,0,.55-.25l.42-2.31c.06-.32-.18-.37-.42-.44v-.11l2,.36,0,.12c-.4-.06-.58-.09-.65.33l-.41,2.26c0,.23.08.29.45.36a1.42,1.42,0,0,0,1.61-.67l.17,0Z" transform="translate(-3.44 -2.39)" fill="#fff"/><path d="M104.11,61.91l-2-.42,0-.12c.31,0,.54.07.59-.22l.48-2.3c.06-.32-.2-.38-.45-.45v-.12l2,.42,0,.11c-.26,0-.54-.09-.6.23l-.48,2.3c-.07.31.16.37.47.45Z" transform="translate(-3.44 -2.39)" fill="#fff"/><path d="M108.14,62.43l-1.87-.2,0-.12c.35,0,.46,0,.47-.14a2.51,2.51,0,0,0-.19-.68l-1.3-.12a2.52,2.52,0,0,0-.31.59c0,.19.25.23.45.26l0,.12L104.23,62V61.9c.31,0,.41-.17.62-.51l1.55-2.51h.16l1,2.67c.21.55.28.72.56.74ZM106.5,61.1,106,59.87,105.38,61Z" transform="translate(-3.44 -2.39)" fill="#fff"/><path d="M93.34,23.22c0-1.17-.66-.07-1-1.06-.27.83-1.06.13-1.06,1,0,.35.09.55.26.65v.35a.17.17,0,0,0,.16.17h1.23a.16.16,0,0,0,.16-.17v-.37a.74.74,0,0,0,.26-.6m-1,.23c-.35,0-.8.23-.8-.17,0-.57.39-.44.73-.44s.86-.13.86.44c0,.4-.45.17-.79.17" transform="translate(-3.44 -2.39)" fill="#fff"/><path d="M103.49,37.55a.51.51,0,0,0,.54-.48.54.54,0,1,0-.54.48" transform="translate(-3.44 -2.39)" fill="#fff"/><path d="M101,20.26a2.89,2.89,0,0,0-.25.5A.26.26,0,0,0,101,21a.27.27,0,0,0,.25-.28s-.26-.5-.26-.5" transform="translate(-3.44 -2.39)" fill="#fff"/><path d="M83.83,20.26a2.89,2.89,0,0,0-.25.5.27.27,0,0,0,.26.28.26.26,0,0,0,.25-.28s-.26-.5-.26-.5" transform="translate(-3.44 -2.39)" fill="#fff"/><path d="M88.12,20.26a2.89,2.89,0,0,0-.25.5.26.26,0,0,0,.25.28.27.27,0,0,0,.26-.28s-.26-.5-.26-.5" transform="translate(-3.44 -2.39)" fill="#fff"/><path d="M92.41,20.26a2.89,2.89,0,0,0-.25.5.26.26,0,0,0,.25.28.27.27,0,0,0,.26-.28s-.26-.5-.26-.5" transform="translate(-3.44 -2.39)" fill="#fff"/><path d="M96.69,20.26a2.89,2.89,0,0,0-.25.5.26.26,0,1,0,.51,0s-.26-.5-.26-.5" transform="translate(-3.44 -2.39)" fill="#fff"/><path d="M83.84,26.14a2.89,2.89,0,0,1,.25.5.25.25,0,1,1-.5,0s.25-.5.25-.5" transform="translate(-3.44 -2.39)" fill="#fff"/><path d="M83.84,31.86a2.89,2.89,0,0,1,.25.5.25.25,0,1,1-.5,0l.25-.5" transform="translate(-3.44 -2.39)" fill="#fff"/><path d="M84.53,36.38a2.69,2.69,0,0,1,.25.51.26.26,0,1,1-.51,0l.26-.51" transform="translate(-3.44 -2.39)" fill="#fff"/><path d="M88.12,38.79a3.31,3.31,0,0,1,.25.5.26.26,0,0,1-.25.28.27.27,0,0,1-.26-.28l.26-.5" transform="translate(-3.44 -2.39)" fill="#fff"/><path d="M101.2,26.14a2.89,2.89,0,0,0-.25.5.26.26,0,0,0,.25.28.27.27,0,0,0,.26-.28s-.26-.5-.26-.5" transform="translate(-3.44 -2.39)" fill="#fff"/><path d="M101.2,31.86a2.89,2.89,0,0,0-.25.5.26.26,0,0,0,.25.28.27.27,0,0,0,.26-.28l-.26-.5" transform="translate(-3.44 -2.39)" fill="#fff"/><path d="M100.51,36.38a2.69,2.69,0,0,0-.25.51.26.26,0,1,0,.51,0l-.26-.51" transform="translate(-3.44 -2.39)" fill="#fff"/><path d="M96.92,38.79a3.31,3.31,0,0,0-.25.5.25.25,0,1,0,.5,0l-.25-.5" transform="translate(-3.44 -2.39)" fill="#fff"/><path d="M92.54,41.34a3.31,3.31,0,0,0-.25.5.26.26,0,0,0,.25.28.27.27,0,0,0,.26-.28s-.26-.5-.26-.5" transform="translate(-3.44 -2.39)" fill="#fff"/><path d="M99.52,32.81c0,.08.18.11.36,0l.16-.46a.36.36,0,0,0-.31-.19c-.46.11-.94.17-1.21.6a.9.9,0,0,0,.43.71c.16-.06.19.11.29.19a.19.19,0,0,1-.19.25c-.32-.33-.88.1-1.13-.31.11-.4.32-.87,0-1.25,0-.08.17-.16.08-.24-.13-.38-.53-.08-.78-.08a1,1,0,0,0-1,.49.78.78,0,0,0,.21.4c.11,0,.17,0,.2.11l-.27.17a.89.89,0,0,1,.11.3c-.19.08-.38-.2-.46-.33s0-.6-.27-.65a1.33,1.33,0,0,0-.24.08.81.81,0,0,0-.11.44,1.77,1.77,0,0,0,.11.49,4.73,4.73,0,0,1,1,1c-.24.49-.24,1.17-.81,1.44-.16.1-.16.27-.16.43l.14.11c.34-.19,1-.25,1-.84a2,2,0,0,1,.51-.71.58.58,0,0,1,.62.3,1,1,0,0,1-.73.81c0,.06,0,.14,0,.22s.41.11.56.08c.47-.3.65-.84,1.06-1,.06.27-.54.36-.16.62.24,0,.56,0,.73-.29-.19-.47.65-.68.14-1.09,0-.41.42-.57.39-1s-.67-.43-.8-.84a.61.61,0,0,1,.57,0" transform="translate(-3.44 -2.39)" fill="#fff"/><path d="M79.82,37.75a.47.47,0,1,0-.54-.47.5.5,0,0,0,.54.47" transform="translate(-3.44 -2.39)" fill="#fff"/><path d="M52,54a.51.51,0,1,0-.53-.51A.52.52,0,0,0,52,54" transform="translate(-3.44 -2.39)" fill="#fff"/><path d="M69.71,57.93h0l0,0h0v0h0v-.06s0,0,0,0h.05s0,0,0,0,0,0,0,0l0,0Zm-.07,0s0,0,0,0v0s0,0,0,0Z" transform="translate(-3.44 -2.39)" fill="#fff"/><path d="M69.79,57.87s0,0,0,0h0s0,0,0,0h0s0,0,0,0,0,0,0,0h0v0h0s0,0,0,0,0,0,0,0h0s0,0,0,0a0,0,0,0,1,0,0h0v0Z" transform="translate(-3.44 -2.39)" fill="#fff"/><path d="M70,57.84v0l0,.07h0l0-.06,0,.06h0l0-.07v0h0l0,0,0,0h0l0,0,0,0s0,0,0,0h0Z" transform="translate(-3.44 -2.39)" fill="#fff"/><path d="M70,57.93s0,0,.05,0h0s0,0,0,0,0,0,0,0a0,0,0,0,1,0,0s0,0-.08,0m0,0h0v0l0,0a0,0,0,0,0,0,0Z" transform="translate(-3.44 -2.39)" fill="#fff"/><path d="M70.06,57.87h0l0,0s0,0-.06,0h0s0,0,0,0l0,0s0,0,0,0v0h0v0h.06v0h0Z" transform="translate(-3.44 -2.39)" fill="#fff"/><path d="M102.4,19.58H82.62V34.7A3.61,3.61,0,0,0,84.18,38l7.62,4.83a.92.92,0,0,0,.69.32.91.91,0,0,0,.62-.25l7.72-4.9a3.6,3.6,0,0,0,1.56-3.3l0-15.12Zm-.56,15.31a3.39,3.39,0,0,1-1.28,2.64l-7.45,4.74h0a1,1,0,0,1-.58.2,1,1,0,0,1-.59-.2l-7.44-4.74a3.43,3.43,0,0,1-1.29-2.64V20.11h18.67Z" transform="translate(-3.44 -2.39)" fill="#fff"/><path d="M95.17,41.61l.25-.11a1.17,1.17,0,0,0-.25.11" transform="translate(-3.44 -2.39)" fill="#fff"/><path d="M80.25,62.27l-1.87.22v-.13c.36-.06.46-.08.44-.23a2.08,2.08,0,0,0-.34-.61l-1.29.15a2.67,2.67,0,0,0-.18.65c0,.18.3.16.49.15l0,.12-1.17.14v-.12c.3-.08.36-.25.5-.63l1-2.8.16,0,1.57,2.39c.32.49.43.64.71.6Zm-1.88-.93-.71-1.11-.42,1.24Z" transform="translate(-3.44 -2.39)" fill="#fff"/><path d="M113,55.19a3,3,0,0,0-1.94-1.78,2.47,2.47,0,0,0-2.46.64c-1,.82-.32,2.2-.29,3.31,0,.23,0,.4-.2.52-4.11-.37-7.95-1.41-12-1.84-.94-.16-1.89-.12-2.78-.3l-1.14-.12a47.67,47.67,0,0,0-10.42,1.17c-.71.23-1.51.28-2.21.55-.51-.09-.94.28-1.43.13l-.92.22a.72.72,0,0,1-.32,0c-.46-1.17.91-1.88.48-3a2.09,2.09,0,0,0-2-1.17,2.39,2.39,0,0,0-2.27,1.17c-.65,1.43.17,2.92.43,4.32-.06.46.45,1,0,1.34a3.9,3.9,0,0,0-3.21-.65c-.34.17-1-.06-1.13.34a8.13,8.13,0,0,0,4.13.51c.18,0,.29-.08.44,0,.11.74-.15,1.74.31,2.39a2.92,2.92,0,0,0,2.18,1,34.38,34.38,0,0,0,7.33-1.46c.37,0,.65-.23,1-.23a20.59,20.59,0,0,1,4-.54,6.92,6.92,0,0,0-1.19,2.58c-.34.76.59.88.87,1.31a20.36,20.36,0,0,0-2.32,1.2c-1.82-.06-3.35.63-5,.83,0,.37.59.26.65.63-.09.25-.35.28-.54.42,0,.17,0,.2.17.24.17-.2.54-.07.7-.26.58,0,1.06-.18,1.6-.2A5.47,5.47,0,0,0,85,67.83c.59-.17,1-.58,1.56-.75.85,0,1.62-.29,2.41-.34v.17c-.65,1.06-1.34,2.14-2,3.15a.32.32,0,0,0,.2.45,1.45,1.45,0,0,0,1.11-.17c.6-1,1.13-2,1.62-3a4,4,0,0,1,1.62-2.15c.11-.06.28-.23.39-.06a14.4,14.4,0,0,0-1.36,2A2.4,2.4,0,0,0,91,69.57c.34.28.85.2,1.3.23,1.11-.57,2.53.34,3.38-.75.51-.09.6.52.87.8.49.14,1,.64,1.49.29,0-.31-.38-.6-.54-.88-.35-.6-.77-1.09-1.08-1.64A6,6,0,0,1,96,66.57a9.84,9.84,0,0,0,1.54.6,10.31,10.31,0,0,1,1.53.45,5,5,0,0,0,1.42,1.09c.71.34,1.51.4,2.24.69.29,0,.71.25.9,0a1,1,0,0,0-.42-.31c-.09-.38.51-.18.71-.47a.39.39,0,0,0-.33-.21c-.4-.22-1.42-.3-1.68-.44a7.53,7.53,0,0,1-1-.31c-1.71,0-2.65-1.55-4-2.12.32-.29.79-.52,1-1a1.58,1.58,0,0,0,.08-1.51c-.25-.89-1.4-.77-2-1.26l.08-.09a12.56,12.56,0,0,1,3.06.4c2.73.37,5.26,1.41,8.1,1.47,1.56,0,3.52.08,4.28-1.44.15-.88.31-1.77.46-2.65.34-1.43,1.28-2.75,1.14-4.32m-30.67,13L82,67.86c.2-.27.62-.13.94-.29a4.89,4.89,0,0,1,2.4-.35,6.61,6.61,0,0,1-3,1m17.73-.45a12.62,12.62,0,0,0,3,.71c-.09.39-.79,0-.7.58a6.75,6.75,0,0,1-2.55-1.2s.11-.12.22-.09M73.45,55.62a2,2,0,0,1,.68-1.44,2.37,2.37,0,0,1,2.24.1,1.09,1.09,0,0,1,.45.53,1.27,1.27,0,0,1-.42,1.29h-.29a3.18,3.18,0,0,1,.17-1.29c0-.33-.31-.37-.54-.51a1.69,1.69,0,0,0-1.28.29,1.27,1.27,0,0,0-.36,1.26c.2.31,0,.74.14,1.08l-.09.12c-.34-.37-.8-.78-.7-1.43m1.33.81c.42.32,1,.18,1.53.26a1,1,0,0,1-.15,1c-.47-.11-1.1,0-1.35-.51,0-.2-.09-.49,0-.72m-.09-1c.09-.22,0-.57.31-.62s.52-.06.54.16a5.46,5.46,0,0,1-.14,1,.67.67,0,0,1-.71-.55M88,64.66a3.05,3.05,0,0,1,.91-2.58,1.61,1.61,0,0,1,1.22.05c-.74.21-1.68.37-1.85,1.32,0,.38-.08.57.08.89.32.54,1,.32,1.43.74a.38.38,0,0,1-.26.34A10.89,10.89,0,0,1,88,64.66m-1,2c.68-.28,1.39-.88,2.16-.62a3.91,3.91,0,0,1-2.16.62m2.7.29a20.81,20.81,0,0,1-1.39,2.69c-.06.14-.28.17-.45.2,0-.4.39-.71.56-1.06.6-.77.77-1.6,1.45-2.35.17.18-.17.29-.17.52m.71-1.66v.12h-.06v-.15h.12a.18.18,0,0,0-.12,0Zm-.25-.77a6.55,6.55,0,0,1-1.37-.35c-.28-.28,0-.59,0-.91a1.46,1.46,0,0,1,2.08-.37,3.14,3.14,0,0,1-.71,1.63m.62,0a4.51,4.51,0,0,1,.46-1.2,2.47,2.47,0,0,1-.46,1.2m.31-2.32c-.36-.08-.57-.51-1-.51a2.34,2.34,0,0,1,1.09,0c.14.2-.09.37-.12.54m.34.86h0v-.31h0Zm0,1.32c0-.11.06-.26.09-.4s.28.11.33.19a.42.42,0,0,1-.42.21m.42-1.77a3.53,3.53,0,0,1,.43-1.07,1.56,1.56,0,0,1,.76.12c.06.57.78,1.34,0,1.83-.25.11-.62.38-.9.11a.79.79,0,0,1-.29-1m2.07-.81c-.05-.26.27,0,.37-.16l.89,0c-.46,0-1,1-1.26.11m1.43.37c-.35.12-.6.52-.94.6a1.18,1.18,0,0,1,.94-.6M94.16,64h0v-.08h0Zm.06,1.66c0,.06,0,.14-.06.21l-.65-.53a.7.7,0,0,1,.71.32m-.77-.89a.21.21,0,0,1,.26,0Zm-.4-.42c.12-.17.26-.43.46-.43,0,0,0,.05.06.08a1.49,1.49,0,0,1-.52.35m-.64-.06h-.12l.17-.17c.09.06,0,.12,0,.17m.08,1.09c.37-.4.71.23.86.54.42.63,1.53,1.2,1.1,2.06-.54.48-1.4,0-2,.4-.31,0-.85,0-1-.26a16.55,16.55,0,0,1,1-2.74m-.79.54.14-.23a11.81,11.81,0,0,1-.94,2c-.17-.68.54-1.22.8-1.82M93,69.31c-.54,0-1.37.34-1.88-.11,0-.24-.22-.34-.19-.58.45-.17.84.37,1.27,0a10.07,10.07,0,0,1,2,.06c.32.08.8-.52.86.08-.23,1-1.36.28-2,.57m1.64-4.2h.06v.08h-.06ZM94.76,67c0,.29.31.39.15.66a.9.9,0,0,1-.15-.66m.8,1.71-.14.06c-.15-.11-.1-.43-.06-.6.16.14.31.34.2.54M97,69.4c0,.08-.17.08-.23,0A15.31,15.31,0,0,1,95,66l.11,0c.68,1.11,1.22,2.34,1.91,3.43m1-2.63a.1.1,0,0,0-.06.11A3.24,3.24,0,0,1,96,66l0-.14a5.14,5.14,0,0,1,2.08.91M97.28,63c.35.09.37.46.41.75a1.69,1.69,0,0,1-2.08,1.51,1.82,1.82,0,0,0,1.71-1Zm-.61-.11a1.94,1.94,0,0,1,.25,1.26c-.28.55-.85.55-1.36.65a.89.89,0,0,1-.65-.2.29.29,0,0,0-.12-.28c.09-.37-.66-.74-.14-1.06s1.53-1.4,2-.37m14.41-2.09c-.22.29,0,.74-.31,1,0,.52-.43.77-.79,1-3.38.75-6.7-.39-10-1a34.73,34.73,0,0,0-14.57-.22c-2.19.4-4.32.91-6.41,1.51a9.36,9.36,0,0,1-4,0c-1-.49-.6-1.8-.91-2.72a14.31,14.31,0,0,0-.23-2,1.9,1.9,0,0,1-.11-.74,13.11,13.11,0,0,1,1.3.49c2.4.45,4.52-.32,6.73-.72a50.34,50.34,0,0,1,6.56-1,41.78,41.78,0,0,1,7.61.26c.8,0,1.48.23,2.24.28,1.59.21,3.07.63,4.68.75.26.08.57.08.86.14,2.55.41,5.42,1.12,7.86,0a20,20,0,0,1-.57,3m-.79-3.48c0,.45-.4.34-.62.51H109a1.48,1.48,0,0,1-.09-.8,5.14,5.14,0,0,1,1.39.29m-.31-.72c.31-.31-.09-2.12.79-.94,0,.23,0,.57-.2.74s-.36.35-.59.2m2.3-.29a1.66,1.66,0,0,1-1.22,1c0-.69.65-1.18.42-2a1.7,1.7,0,0,0-1.79-.57c-.25.17-.14.46-.23.71l-.11.94c-.57,0-.59-.5-.77-.91a1.68,1.68,0,0,1,.88-1.48,2,2,0,0,1,1.65.06,1.26,1.26,0,0,1,.94.59c.42.41.31,1.12.23,1.63" transform="translate(-3.44 -2.39)" fill="#fff"/><rect x="200.92" width="0.91" height="89.95" fill="#fff"/></svg>